<?xml version="1.0" encoding="UTF-8"?>
<svg width="613px" height="130px" viewBox="0 0 613 130" version="1.1" xmlns="http://www.w3.org/2000/svg" xmlns:xlink="http://www.w3.org/1999/xlink">
    <!-- Generator: Sketch 58 (84663) - https://sketch.com -->
    <title>Group</title>
    <desc>Created with Sketch.</desc>
    <g id="Page-1" stroke="none" stroke-width="1" fill="none" fill-rule="evenodd">
        <g id="Group">
            <text id="PlantLand" font-family="Lora-Regular, Lora" font-size="100" font-weight="normal" fill="#FFFFFF">
                <tspan x="148" y="128">PlantLand</tspan>
            </text>
            <g id="plant" fill-rule="nonzero">
                <path d="M91.6882445,57.2624722 C91.0296013,56.073214 89.5415465,55.6495716 88.3632689,56.3145199 L88.2342765,56.3882934 C87.0618622,57.0628644 86.6528975,58.5694226 87.32058,59.7534994 C87.7710763,60.5521777 88.5960905,61 89.445535,61 C89.8552326,61 90.2710378,60.8956315 90.6523961,60.6760382 L90.7498734,60.620523 C91.9271737,59.9550812 92.3473764,58.4514837 91.6882445,57.2624722 Z" id="Path" fill="#ECD2A0"></path>
                <path d="M51.26725,75.7325 C50.8025,75.2675 50.1575,75 49.5,75 C48.8425,75 48.1975,75.2675 47.7325,75.7325 C47.26725,76.1975 47,76.8425 47,77.5 C47,78.1575 47.2675,78.8025 47.7325,79.2675 C48.1975,79.7325 48.8425,80 49.5,80 C50.1575,80 50.8025,79.7325 51.26725,79.2675 C51.7325,78.8025 52,78.1575 52,77.5 C52,76.8425 51.73225,76.1975 51.26725,75.7325 Z" id="Path" fill="#79A208"></path>
                <path d="M64.5,63.0002513 L58.38125,63.0002513 C61.96025,55.0180322 64.3325,46.5860648 65.44025,37.8785984 L66.48,29.70613 C66.61275,28.6623841 66.078,27.647388 65.142,27.1666398 C64.2055,26.6856417 63.06925,26.8428911 62.2985,27.5586383 L61.462,28.3353853 C57.98175,31.5681228 54.876,35.1096091 52.16725,38.9083444 C54.3625,28.3696352 57.185,17.7171764 60.25325,11.0299522 L60.266,11.0022023 C60.73975,9.96870632 60.45625,8.74571105 59.576,8.02596384 C58.69625,7.30621662 57.4415,7.27071676 56.522,7.93971417 C51.5555,11.5549502 47.087,15.8509336 43.25575,20.654415 C43.9535,14.7471879 45.5745,8.92921034 48.05275,3.54548116 C48.4965,2.58098489 48.283,1.44148929 47.52,0.703242146 C46.75675,-0.0347550003 45.61125,-0.21075432 44.6615,0.264993841 L40.03875,2.58173488 C32.8435,6.18747094 27.8675,12.7516956 26.26575,20.401666 C22.822,16.4386813 18.5975,13.2076938 13.815,10.9222026 L7.08475,7.70546507 C6.10575,7.23746688 4.93475,7.45496604 4.18925,8.24446299 C3.4435,9.03395994 3.29275,10.2144554 3.81625,11.1659517 L4.26575,11.9831985 C8.876,20.3631661 12.35975,29.2493818 14.67425,38.4853461 C12.97625,37.219101 11.154,36.1111053 9.22225,35.1878588 L3.578,32.4903693 C2.59825,32.0218711 1.42775,32.2398702 0.6825,33.0296172 C-0.063,33.8191141 -0.21375,34.9998596 0.31,35.9513559 L0.68675,36.6363532 C5.23625,44.9055713 8.47525,53.764537 10.33575,63.0002513 L2.5,63.0002513 C1.1195,63.0002513 0,64.119497 0,65.5002416 L0,106.875082 C0,118.523537 9.47675,128 21.125,128 L45.875,128 C57.5235,128 67,118.523287 67,106.875082 L67,65.5002416 C67,64.119497 65.88075,63.0002513 64.5,63.0002513 Z M60.59375,36.3561043 L60.48025,37.2476009 C59.33975,46.2125662 56.779,54.8677827 52.86825,63.0002513 L46.39575,63.0002513 C48.95025,53.0565397 53.79175,43.9810748 60.59375,36.3561043 Z M52.28025,18.082925 C48.19475,30.995125 45.44175,47.1195627 44.56225,52.6550413 C44.56,52.6692912 44.55975,52.6835412 44.5575,52.6977911 C43.19575,56.0192783 42.0885,59.460515 41.248,63.0005013 L33.28975,63.0005013 C33.4035,46.0438169 40.353,29.8493795 52.28025,18.082925 Z M30.71,25.7911452 C30.7095,18.2826742 34.6315,11.4844505 41.03625,7.72721499 C38.949,14.0071907 37.862,20.6439151 37.862,27.2381396 L37.862,27.9348869 C37.862,28.0916363 37.87825,28.2446357 37.906,28.3933851 C37.14625,29.6706302 36.42425,30.9701251 35.75025,32.29437 C35.2415,33.2938661 34.75925,34.3068622 34.301,35.3303583 C33.445,32.2571202 32.20775,29.2918816 30.606,26.5013924 C30.67275,26.2761433 30.71,26.0378942 30.71,25.7911452 Z M11.65825,15.4329352 L11.659,15.4334352 C23.14825,20.924414 30.599,32.6541186 30.71025,45.3738194 C29.1475,51.1127973 28.325,57.0537743 28.288,63.0002513 L27.76975,63.0002513 C27.48275,57.4145229 25.776,52.0010438 22.78125,47.2503122 C22.27925,46.4538153 21.74075,45.6850682 21.17575,44.9390711 C19.33075,34.6903607 16.13925,24.794149 11.65825,15.4329352 Z M8.10375,40.2223394 C16.58375,44.7283219 22.17125,53.4362883 22.76275,63.0002513 L15.43325,63.0002513 C13.92825,55.1135318 11.4725,47.4818113 8.10375,40.2223394 Z M62,106.875082 C62,115.766297 54.76625,123.000019 45.875,123.000019 L21.125,123.000019 C12.23375,123.000019 5,115.766547 5,106.875082 L5,79.2501885 L39.375,79.2501885 C40.7555,79.2501885 41.875,78.1309428 41.875,76.7501981 C41.875,75.3694535 40.7555,74.2502078 39.375,74.2502078 L5,74.2502078 L5,68.000232 L43.23325,68.000232 C43.243,68.000232 43.25275,68.000232 43.2625,68.000232 L54.41625,68.000232 C54.419,68.000232 54.422,68.000232 54.42475,68.000232 C54.42725,68.000232 54.4295,68.000232 54.43175,68.000232 L62,68.000232 L62,106.875082 Z" id="Shape" fill="#ECD2A0"></path>
                <path d="M127.462041,90.1270038 C126.983527,89.5254501 126.25137,89.1740253 125.476056,89.1740253 L111.805594,89.1740253 L111.805089,70.7921662 C111.805089,69.7714911 111.702118,68.7557936 111.508037,67.7587625 L120.761329,61.6150497 C122.976729,60.1441426 124.653042,57.954955 125.480851,55.4514263 C127.25736,50.0807486 124.918295,44.1796982 119.919639,41.4200674 C119.888344,41.4028944 119.856796,41.3862191 119.824744,41.3702905 C115.766459,39.3486021 110.981066,39.8050562 107.416186,42.3048517 L107.415934,35.4744667 C107.415934,33.3706464 106.692863,31.2986834 105.379725,29.6403663 C102.563407,26.0833096 97.5549085,24.9787604 93.4696194,27.0146353 C93.437567,27.0305639 93.405767,27.0472391 93.3744718,27.064661 C89.3815541,29.2697773 87.5139356,33.9843955 88.933578,38.2746657 C89.5953207,40.2747012 90.9347059,42.0233633 92.704653,43.198098 L102.583345,49.75471 C102.443021,50.480706 102.368569,51.2201417 102.368821,51.9630618 L102.369326,56.1278942 C100.761155,55.3844763 99.0235127,54.894174 97.2023324,54.6930753 C95.8190329,54.5400114 94.5682333,55.5236028 94.4135238,56.8897295 C94.258562,58.2558563 95.2557188,59.4870877 96.640785,59.6399027 C99.0921603,59.9104401 101.329769,60.9283775 103.099464,62.5483664 C103.137826,62.5866947 103.178711,62.6220362 103.219597,62.6576267 C103.621135,63.0359311 103.99794,63.4450971 104.346225,63.884876 C105.900891,65.8485743 106.75722,68.3018284 106.75722,70.792664 L106.757977,89.1740253 L103.631735,89.1740253 L89.5486302,79.8269207 C87.4531119,78.4361544 85.8674029,76.3656846 85.0835079,73.9975491 C84.2006796,71.3297566 84.3604367,68.4514079 85.533503,65.8931246 C86.1076695,64.640738 85.5435982,63.1663465 84.2736177,62.6001344 C83.0033848,62.0336734 81.5082805,62.5899302 80.934114,63.8425656 C79.2408908,67.5355131 79.0104671,71.6903902 80.2852428,75.5423749 C81.4166663,78.9608028 83.7057607,81.9491585 86.7302931,83.9566605 L94.5917047,89.1740253 L77.5236914,89.1740253 C76.7486297,89.1740253 76.0162205,89.5254501 75.5379587,90.126755 C75.059697,90.7280598 74.888078,91.5130414 75.0725684,92.2554637 L83.4882084,126.103749 C83.7650702,127.21701 84.7768651,128 85.9393314,128 L117.060669,128 C118.222882,128 119.23493,127.217258 119.511792,126.103749 L127.927432,92.2554637 C128.111922,91.5132902 127.940303,90.7283087 127.462041,90.1270038 Z M95.5234949,39.0683582 C94.6828142,38.5103593 94.046562,37.6798319 93.7323478,36.7300888 C93.0637909,34.7098937 93.9302144,32.4915865 95.7942995,31.4335787 C97.7252656,30.4992665 100.075436,31.0288926 101.401445,32.703885 C102.025078,33.4916043 102.368569,34.4756934 102.368569,35.4747156 L102.368821,43.6119928 L95.5234949,39.0683582 Z M108.895643,47.7220707 C110.93059,45.151592 114.541908,44.343962 117.501073,45.7894829 C120.370391,47.4022542 121.70801,50.8074912 120.682334,53.9080938 C120.201548,55.361579 119.228368,56.6321341 117.942487,57.4860567 L109.737585,62.9336396 C109.323933,62.1961949 108.853495,61.4883676 108.32501,60.8208595 C108.036538,60.4564926 107.731662,60.1097966 107.417448,59.7745492 L107.416691,51.9618173 C107.416438,50.433169 107.941643,48.927667 108.895643,47.7220707 Z M120.154858,102.613786 L92.2458245,102.613786 C90.8521774,102.613786 89.7220159,103.728041 89.7220159,105.10263 C89.7220159,106.477219 90.8521774,107.591475 92.2458245,107.591475 L118.917182,107.591475 L115.080741,123.022311 L87.9192593,123.022311 L80.7412951,94.1517143 L102.861721,94.1517143 L109.281785,94.1517143 L122.258705,94.1517143 L120.154858,102.613786 Z" id="Shape" fill="#79A208"></path>
            </g>
        </g>
    </g>
</svg>