<svg xmlns="http://www.w3.org/2000/svg" viewBox="0 0 1000 1000" version="1.1" x="0px" y="0px" style="max-width:100%" height="100%"><g style="" fill="currentColor"><path fill="currentColor" opacity="1.00" d=" M 420.50 282.91 C 419.41 274.92 425.89 266.98 433.92 266.40 C 440.62 265.60 447.43 269.96 449.57 276.35 C 450.88 279.75 450.34 283.44 449.57 286.89 C 452.35 288.09 454.98 289.63 457.41 291.45 C 483.89 310.03 506.16 334.38 523.05 361.92 C 539.90 389.50 551.04 420.46 556.16 452.35 C 558.21 420.69 553.55 388.57 542.13 358.95 C 538.92 352.22 540.86 344.48 542.68 337.65 C 536.34 335.73 531.43 329.74 531.58 322.99 C 531.06 316.89 534.41 310.63 540.00 308.01 C 546.43 304.78 554.98 306.96 558.94 313.00 C 562.40 317.95 562.18 324.59 560.06 330.03 C 567.94 333.63 574.56 339.36 581.52 344.42 C 617.58 372.86 644.88 412.11 659.68 455.55 C 670.05 426.33 674.41 395.01 672.05 364.09 C 671.29 358.36 674.10 352.67 678.81 349.44 C 674.24 346.58 670.91 341.54 671.16 336.02 C 671.03 328.15 678.10 321.09 685.98 321.25 C 693.59 320.94 700.63 327.38 701.07 334.97 C 701.64 340.35 698.88 345.68 694.47 348.71 C 697.80 349.49 701.02 351.01 703.26 353.68 C 726.05 379.32 743.07 409.97 753.19 442.73 C 770.87 499.13 767.54 561.81 743.96 616.02 C 741.34 622.51 737.80 628.58 734.99 634.98 C 737.38 642.46 739.88 650.05 740.03 657.99 C 741.69 679.80 733.28 702.28 717.22 717.22 C 715.81 718.58 714.19 719.98 713.94 722.05 C 695.39 801.69 676.81 881.33 658.25 960.97 C 656.99 966.04 656.50 971.71 652.60 975.60 C 649.12 980.32 644.42 985.09 638.06 984.82 C 540.71 984.88 443.36 984.80 346.01 984.86 C 341.12 985.16 335.75 984.47 332.15 980.81 C 328.98 977.48 326.00 973.63 325.07 969.03 C 306.14 884.99 287.33 800.91 268.31 716.88 C 246.56 701.08 235.47 672.43 239.87 646.03 C 240.64 640.73 242.26 635.61 243.98 630.56 C 225.03 607.59 212.37 579.77 205.64 550.86 C 203.44 539.01 202.10 527.02 201.25 515.01 C 199.30 462.83 218.94 409.94 255.56 372.54 C 257.12 371.05 258.87 369.77 260.62 368.51 C 258.68 363.30 259.04 357.06 262.75 352.70 C 267.42 346.64 276.91 345.33 283.06 349.88 C 289.22 354.04 291.26 363.01 287.52 369.43 C 286.18 372.04 283.81 373.84 281.49 375.51 C 282.59 378.88 282.85 382.42 282.46 385.94 C 280.90 408.21 283.04 430.58 287.22 452.46 C 303.70 403.61 336.22 360.12 379.05 331.29 C 382.01 329.29 385.63 328.83 389.01 327.89 C 388.75 320.06 394.91 312.53 402.89 312.11 C 411.31 311.13 419.38 318.56 419.12 327.01 C 419.35 333.85 414.24 339.73 407.93 341.76 C 407.72 345.10 406.80 348.34 405.15 351.26 C 385.17 390.37 377.52 435.62 383.31 479.14 C 385.69 499.30 391.64 518.88 399.46 537.57 C 424.12 507.73 440.62 471.21 446.44 432.92 C 452.74 393.44 447.93 352.26 432.72 315.28 C 431.51 312.26 429.92 309.28 429.73 305.97 C 429.52 302.55 430.50 299.22 431.40 295.96 C 425.74 294.00 420.98 289.07 420.50 282.91 M 473.01 453.93 C 464.00 493.53 445.31 530.97 418.39 561.43 C 417.00 562.88 415.34 564.03 413.73 565.22 C 423.97 581.76 436.47 596.97 451.03 609.90 C 458.19 609.83 465.34 609.95 472.50 609.84 C 474.78 607.03 477.68 604.88 480.48 602.64 C 494.71 590.82 507.33 577.07 517.91 561.89 C 519.05 560.46 519.14 558.60 519.42 556.88 C 519.91 552.99 521.39 549.34 522.26 545.54 C 531.63 509.18 531.31 470.41 521.64 434.14 C 512.88 401.18 496.16 370.40 473.23 345.15 C 481.29 380.82 480.91 418.27 473.01 453.93 M 580.75 383.69 C 590.73 428.84 587.87 476.76 572.48 520.38 C 560.82 553.83 541.66 584.58 516.93 609.95 C 554.86 609.78 592.78 609.96 630.71 609.86 C 646.60 564.80 647.39 514.60 632.64 469.13 C 622.43 437.05 604.33 407.66 580.75 383.69 M 351.25 397.38 C 327.73 426.19 312.46 461.47 306.60 498.14 C 306.24 500.26 305.46 502.27 304.68 504.27 C 308.73 513.81 314.31 522.59 319.44 531.56 C 338.15 561.36 363.73 586.85 393.78 605.20 C 395.90 606.44 397.72 608.10 399.44 609.85 C 402.70 609.89 405.97 609.88 409.24 609.89 C 385.66 582.32 369.10 549.16 359.66 514.23 C 348.78 472.78 348.65 428.47 359.71 387.04 C 356.95 390.54 353.98 393.87 351.25 397.38 M 701.79 401.59 C 698.81 436.23 688.86 470.42 671.83 500.79 C 670.55 502.68 671.23 504.99 671.42 507.09 C 675.57 541.50 672.39 576.76 662.23 609.90 C 676.16 609.87 690.08 609.89 704.01 609.87 C 707.09 609.84 710.07 610.75 713.00 611.64 C 729.69 576.96 736.83 537.79 733.76 499.44 C 731.09 464.89 720.01 431.06 701.79 401.59 M 231.09 512.00 C 231.82 523.03 233.03 534.06 235.04 544.94 C 238.25 557.83 242.35 570.60 248.49 582.42 C 253.56 592.29 259.09 602.03 266.31 610.51 C 268.85 610.10 271.42 609.82 273.99 609.86 C 298.97 609.93 323.95 609.84 348.93 609.91 C 293.61 564.75 259.05 496.16 253.07 425.23 C 238.05 451.46 230.51 481.81 231.09 512.00 M 273.30 640.11 C 271.79 641.32 271.31 643.27 270.76 645.03 C 265.81 660.79 271.26 678.72 282.82 690.19 C 285.61 693.26 290.09 694.00 292.77 697.21 C 296.05 700.67 296.52 705.60 297.56 710.03 C 315.90 791.65 334.27 873.27 352.63 954.88 C 444.71 954.88 536.79 954.90 628.87 954.87 C 648.09 872.63 667.20 790.35 686.43 708.11 C 687.55 703.59 690.95 700.18 694.50 697.39 C 701.93 691.26 707.02 682.53 709.15 673.18 C 711.76 661.87 709.40 649.57 703.23 639.80 C 681.85 640.07 660.43 639.38 639.07 640.27 C 632.72 639.57 626.32 639.90 619.95 639.84 C 507.64 639.84 395.33 639.84 283.02 639.84 C 279.78 639.90 276.50 639.54 273.30 640.11 Z" style=""></path><path fill="currentColor" opacity="1.00" d=" M 325.17 692.25 C 366.45 691.93 407.74 692.25 449.02 692.10 C 453.83 691.75 458.95 693.02 462.31 696.66 C 467.48 701.77 467.97 710.67 463.38 716.31 C 460.49 720.07 455.79 722.25 451.06 722.08 C 409.72 722.08 368.37 722.06 327.03 722.09 C 319.24 722.49 312.06 715.79 311.81 708.03 C 311.14 700.31 317.44 692.83 325.17 692.25 Z" style=""></path><path fill="currentColor" opacity="1.00" d=" M 484.31 694.54 C 489.37 692.91 494.79 693.87 500.01 693.63 C 506.06 693.26 512.09 696.85 514.53 702.43 C 517.59 708.89 515.18 717.31 509.13 721.14 C 503.78 724.82 497.02 723.31 490.96 723.60 C 484.83 724.04 478.56 720.65 476.02 714.98 C 472.19 707.41 476.32 697.31 484.31 694.54 Z" style=""></path></g></svg>