<svg xmlns="http://www.w3.org/2000/svg" xmlns:xlink="http://www.w3.org/1999/xlink" version="1.1" x="0px" y="0px" viewBox="0 0 100 100" style="enable-background:new 0 0 100 100;max-width:100%" xml:space="preserve" height="100%"><g style="" fill="currentColor"><path d="M19.5,47.4c0.4,0.4,0.6,0.1,2,1.3c-2.5-0.4-6.3,0.1-8.2,1.7c-0.2,0.2-0.4,0.5-0.3,0.8c0,0.3,0.2,0.6,0.5,0.8   c2.5,1.6,8.2,1.2,10.6-0.7c0.6,0.8,1.3,1.6,2,2.6c-3.8-1.4-9.4-0.4-9.5,1.3c0,0.3,0.1,0.6,0.4,0.8c2.3,1.9,8.3,2.1,10.7,0.3   c0.5,0.7,0.9,1.5,1.4,2.4c-1.1-0.4-2.4-0.7-3.9-0.7c-1.7-0.1-5.8,0.4-5.8,2c0,0.3,0.1,0.6,0.4,0.8c2.3,1.9,8.2,2.1,10.7,0.4   c1.8,2.9,5,6.8,6.6,9.2c-0.6,0.7-1.2,1.1-2,1.1c-2.7,0-2.9-4.6-7-4.6c-2.2,0-3.4,1.5-4.3,2.7c-1.6,2.1-1.6,1.5-2.5,2.1L35,95.3   l28-0.1l13.5-23.5l-0.9-0.5c-1.7-1-2.4-4.3-5.8-4.3c-2.2,0-3.4,1.5-4.3,2.7c-0.3,0.4-0.6,0.8-0.9,1.1l2.7-6.2   c0.7-1.2,1.3-2.3,1.9-3.3c3.4,2.2,11.4,0.8,11.3-1.3c-0.1-1.6-4.2-2-6-1.9c-1.5,0.1-2.9,0.4-4,0.8c0.5-0.9,1-1.7,1.4-2.5   c0.1,0,1.5,1.2,4.9,1.2c0.2,0,0.4,0,0.7,0c1.7-0.1,5.9-0.8,5.8-2.4c0-0.3-0.2-0.6-0.4-0.8c-2.2-1.5-6.6-1.5-9.3-0.4   c0.7-1,1.4-2,2.1-2.8c1.6,1.2,4.2,1.7,6.2,1.7c5,0,5.6-1.9,4.7-2.7c-1.9-1.6-5.8-2.1-8.5-1.6c1.5-1.3,1.8-1.1,2.1-1.4   c3.4,2.2,11.4,0.8,11.3-1.3c0-0.3-0.2-0.6-0.4-0.8c-1.6-1.1-4.3-1.3-6.3-1.1c2-1.6,4.8-5.2,3.6-6.4c-0.2-0.2-0.5-0.3-0.8-0.3   c-2.6,0.3-6,3.3-7.4,6.1c-0.3-0.9-0.8-1.9-1.4-2.8c-1-1.5-3.8-4.6-5.1-3.7c-1.3,0.9,0.5,4.7,1.5,6.1c0.9,1.4,2,2.5,3,3.2   c-0.8,0.5-1.6,1.2-2.5,2.1c-0.7-4.3-5.5-8.9-6.9-7.9c-1.6,1.1,1.4,8,5.3,9.8c-0.8,1-1.6,2.1-2.4,3.3c-0.7-4-5.3-9-6.9-7.9   c-1.3,0.9,0.5,4.7,1.5,6.1c1.3,1.9,2.8,3.3,4.2,3.8c0,0,0,0,0,0c-0.6,0.9-1.1,1.9-1.7,3c-0.8-4-5.3-8.8-6.9-7.7   c-0.3,0.2-0.4,0.5-0.4,0.8c-0.1,1.4,0.6,3.4,1.9,5.3c1.3,1.9,2.8,3.3,4.2,3.8c0,0,0.1,0,0.1,0c-1.2,2.3-1.8,3.1-1.9,3.4l-3.4,7.8   c-2.1-0.6-2.6-4.5-6.3-4.5c-3.1,0-4,2.8-5.4,4c0-3.8,0.2-10.4,0.4-16.9c2.1,0.3,4.7-0.9,6.5-2.1c1.7-1.1,5.6-4.6,4.7-6.1   c-0.2-0.3-0.4-0.4-0.7-0.5c-1.7-0.3-4.2,0.5-6.5,2.1c-1.6,1.1-3,2.4-3.9,3.6c0-1.9,0.1-3.8,0.1-5.3c3,0.8,9.9-3.2,11.4-7.3   c0.1-0.3,0.1-0.6-0.1-0.9c-1-1.8-8.2,0.8-11.3,5.5c0-1.8,0.1-3.5,0.2-5.2c4.6,1.6,14.6-8,10.7-8.6c-1.7-0.3-4.2,0.5-6.5,2.1   c-1.7,1.1-3.1,2.4-4,3.7c0.2-2.2,0.5-4.2,0.9-6c5.8,1.5,14.5-6.4,11.3-7.3c-3-0.9-7.9,1.3-10.4,3.8c1.2-3.9,1.9-3.6,1.9-4.5   c4.4,1,12.6-6.1,11.3-8.2c-0.2-0.3-0.4-0.4-0.7-0.5c-2.6-0.4-5.9,1.5-8,3.1c2.4-5.4,2.5-12.6,0-10.7C55.1,7,53,13.4,53.3,17.4   c-4.4-5.1-11.7-6.3-10.6-3.6c1.3,3.4,6.5,7.1,10.2,7.4c-0.7,1.3-1.4,3-1.9,5.2c-2.9-5-10.6-7.7-11.6-5.9c-0.2,0.3-0.2,0.6-0.1,0.9   c0.7,1.8,2.5,3.7,4.8,5.3c2.1,1.4,4.2,2.1,5.8,2.1c0.2,0,0.4,0,0.5,0c-0.4,2-0.7,4.3-1,6.8c-0.8-1.6-2.4-3.2-4.4-4.5   c-1.8-1.1-6.3-3.2-7.2-1.6c-0.2,0.3-0.2,0.6-0.1,0.9c1.7,4.6,9.3,8.3,11.6,7.2c-0.1,1.9-0.2,4-0.2,6.1c-0.9-1.5-2.4-3.1-4.4-4.3   c-2.4-1.6-4.8-2.3-6.5-2.1c-0.3,0-0.6,0.2-0.7,0.5s-0.2,0.6-0.1,0.9c1.8,4.6,9.5,8.4,11.7,7.2c0,1.7-0.1,3.7-0.1,5.9   c-3.1-5-10.5-7.3-11.5-5.7c-0.9,1.5,3,5,4.7,6.1c1.7,1.1,4.8,2.6,6.7,2c-0.2,6.6-0.4,13.7-0.4,17.5c-2.3-0.4-2.7-4.6-6.5-4.6   c-1.7,0-2.8,0.9-3.6,1.9c-1.7-2.4-4.5-6-6.1-8.5c0,0,0,0,0,0c1.3-0.5,2.9-1.9,4.1-3.8c1.2-1.9,1.9-3.8,1.8-5.3   c0-0.7-0.7-1.1-1.3-0.9c-1.3,0.5-2.9,1.9-4.1,3.8c-0.9,1.3-1.5,2.7-1.7,3.9c-0.5-1-1.1-1.9-1.6-2.8c1.3-0.5,2.8-1.9,4-3.8   c0.9-1.4,2.7-5.2,1.3-6c-1.7-1.1-6,3.9-6.7,7.8c-0.8-1.1-1.6-2.2-2.3-3.1c4.6-2.2,7.2-10.8,4.1-9.7c-2.6,0.9-5.3,5-5.8,7.9   c-0.8-0.8-1.7-1.5-2.4-2c3.2-2.2,5.8-8.1,4.2-9.2c-1.5-1-5.2,3.2-6.3,6.4c-0.5-1-1.4-2.1-2.4-3.1c-1.3-1.2-4.6-3.5-5.7-2.4   c-1.2,1.3,2,5,3.6,6.2c-1.9-0.1-4.5,0.1-6.1,1.1c-0.3,0.2-0.4,0.5-0.4,0.8s0.1,0.6,0.4,0.8C11.2,48.9,17,49.1,19.5,47.4z    M20.4,55.3c1.2-0.2,2.6-0.1,3.9,0.1C23.8,55.5,21.7,55.6,20.4,55.3z M79.5,55.1c-1.3,0.3-2.9,0.4-4.3,0.2   C75.9,55.1,78.2,54.9,79.5,55.1z M70.8,43.1c1,1,1.9,2.3,2.4,3.6C72.7,46.3,71.3,44.4,70.8,43.1z M66.7,48.3c1,1,1.8,2.3,2.4,3.6   C68.6,51.4,67.2,49.6,66.7,48.3z M64.8,55.3c-0.5-0.7-0.8-1.3-1-1.9c0.4,0.4,0.9,1,1.3,1.7c0.5,0.7,0.8,1.3,1,1.9   C65.7,56.6,65.3,56,64.8,55.3z M76.8,60c-1.3,0.3-2.9,0.4-4.3,0.2C73.1,60.1,75.4,59.8,76.8,60z M81,50.2c0.8,0.1,1.5,0.2,2.1,0.3   c-0.6,0.1-1.3,0.1-2.1,0c-0.8-0.1-1.5-0.2-2.1-0.3C79.5,50.2,80.2,50.1,81,50.2z M87.7,45.7c-1.3,0.3-2.9,0.4-4.3,0.2   C84.1,45.8,86.4,45.5,87.7,45.7z M85.7,39.8c-0.8,1.1-2,2.2-3.1,3C83,42.3,84.5,40.6,85.7,39.8z M76.7,41.5c-0.5-0.7-0.8-1.3-1-1.9   c0.4,0.4,0.9,1,1.3,1.7c0.5,0.7,0.8,1.3,1,1.9C77.7,42.7,77.2,42.2,76.7,41.5z M56,49.1c1.3-0.9,2.5-1.4,3.5-1.6   c-0.8,1-1.9,2-3.1,2.8c-1.3,0.9-2.5,1.4-3.5,1.6C53.6,50.9,54.7,49.9,56,49.1z M59.8,39.3c-1.5,2-4.3,3.8-6.6,4.4   C53.9,42.7,57.4,39.8,59.8,39.3z M56.6,33c1.3-0.9,2.5-1.4,3.5-1.6c-1.5,1.9-4.2,3.8-6.6,4.4C54.2,34.8,55.3,33.8,56.6,33z    M61.5,23.6c-0.8,0.9-2.1,1.7-3.4,2.4c-1.4,0.7-2.7,1-3.6,1.2C56.2,25.4,59.1,23.8,61.5,23.6z M45.4,14.5c2.3,0.6,5.1,2.5,6.6,4.4   C51.1,18.7,47,16.5,45.4,14.5z M42,22.1c2.3,0.6,5.1,2.5,6.6,4.4C47.7,26.2,43.6,24,42,22.1z M43.7,33.8C42.4,33,41.3,32,40.5,31   c0.9,0.2,2.1,0.7,3.5,1.6c1.3,0.8,2.4,1.8,3.1,2.8C46.2,35.2,45,34.7,43.7,33.8z M40.2,39.3c2.3,0.6,5.1,2.5,6.6,4.4   C45.9,43.4,41.7,41.2,40.2,39.3z M43.3,50.3c-1.3-0.8-2.4-1.8-3.1-2.8c0.9,0.2,2.1,0.7,3.5,1.6c1.3,0.8,2.4,1.8,3.1,2.8   C45.9,51.7,44.7,51.2,43.3,50.3z M66.5,85.2C66.5,85.2,66.5,85.2,66.5,85.2l-35.1,0c0,0,0,0,0,0l-3.5-5.9h42L66.5,85.2z M61.8,93.3   l-25.7,0.1l-3.6-6.2h32.8L61.8,93.3z M63.8,14.5c-1.5,1.9-4.2,3.8-6.6,4.4C58.7,17,61.5,15.1,63.8,14.5z M57.6,8.2   c-0.1,2.5-1,5.7-2.3,7.8C55.4,14.7,56.3,10.3,57.6,8.2z M42,68.9c2.7,0,2.9,4.6,7,4.6c4,0,4.3-4.6,7-4.6c2.7,0,2.9,4.6,7,4.6   c4,0,4.3-4.6,7-4.6c1.9,0,2.5,2.1,4,3.4L71,77.2H26.8l-2.8-4.8c1.6-1.4,2.2-3.5,4.1-3.5c2.7,0,2.9,4.6,7,4.6c2.2,0,3.4-1.5,4.3-2.7   C40.2,69.6,40.8,68.9,42,68.9z M34.4,55.2c0.4-0.6,0.8-1.1,1.2-1.5c-0.2,0.5-0.5,1.1-0.9,1.7c-0.4,0.6-0.8,1.1-1.2,1.5   C33.7,56.4,34,55.8,34.4,55.2z M32.7,48.7c-0.5,1.2-1.3,2.4-2.1,3.3C30.8,51.4,31.8,49.6,32.7,48.7z M28.7,43.7   c-0.5,1.1-1.3,2.4-2.1,3.3C26.8,46.4,27.8,44.6,28.7,43.7z M16.9,50.9c1.2-0.3,2.6-0.4,3.9-0.3C20.2,50.8,18.1,51,16.9,50.9z    M23.2,60.1c1.2-0.2,2.7-0.1,3.9,0.1C26.6,60.3,24.4,60.3,23.2,60.1z M23.8,40.3c-0.5,1.1-1.3,2.4-2.1,3.3   C21.9,43.1,22.9,41.2,23.8,40.3z M15.8,41.9c0.5,0.5,1,1,1.3,1.4c-0.5-0.3-1-0.7-1.5-1.2h0c-0.5-0.5-1-1-1.3-1.4   C14.7,40.9,15.2,41.4,15.8,41.9z M16.2,46.4c-1.3,0.2-2.7,0.1-3.9-0.1C12.9,46.2,15,46.2,16.2,46.4z" style="" fill="rgb(13,60,0)"></path></g></svg>