<svg xmlns="http://www.w3.org/2000/svg" xmlns:xlink="http://www.w3.org/1999/xlink" version="1.1" x="0px" y="0px" viewBox="0 0 100 100" style="enable-background:new 0 0 100 100;max-width:100%" xml:space="preserve" height="100%"><g style="" fill="currentColor"><path d="M78.1,74.4c1.2-1.9,1.8-5.3,0.4-7.9c-0.8-1.5-2.6-3.3-6.5-3.3H56c3.5-0.8,7-2.7,10-5.3c8.4-7.3,6.9-14.4,7-14.7   c-0.5,0.1-7.6-1.7-16,5.7c-2.9,2.6-5.1,5.6-6.2,8.6v-9.4l0,0c0.4,0,0.7,0,1.1,0c4.2,0,8.9-2,12.7-5.3c7.7-6.7,6.3-13.1,6.4-13.4   c-0.2,0-7.2-1.4-14.7,5.2c-2.6,2.3-4.5,4.9-5.5,7.5v-3.3c0,0,0,0,0,0c4.1-3.4,6.7-9.6,6.7-16.1c0-12-7.4-16.8-7.5-16.9L49.6,6   c-0.3,0.1-0.5,0.2-0.6,0.5c-4.1,3.4-6.6,9.6-6.7,16.1c0,6.5,2.4,12.5,6.4,16v2.7c-1.1-2.4-2.9-4.8-5.2-6.8   c-7.6-6.7-14.3-5.1-14.7-5.2c0.1,0.3-1.2,6.8,6.4,13.4c3.8,3.3,8.6,5.3,12.7,5.3c0.3,0,0.5,0,0.8,0v9c-1.1-2.9-3.2-5.8-6-8.2   c-8.3-7.3-15.7-5.6-16-5.7c0.1,0.2-1.3,7.4,7,14.7c3,2.6,6.5,4.5,10,5.3H28c-2.9,0-5.3,1.5-6.5,4.1c-1.2,2.4-1,5.4,0.4,7.2   l11.9,19.8h32.3L78.1,74.4z M30.7,85.2c3.4,1.3,6.7-1.4,6.7-5c0-1.6-0.7-3.1-1.8-4h5.1c-1.1,1-1.8,2.4-1.8,4c0,2.9,2.2,5.3,5,5.3   c2.8,0,5-2.4,5-5.3c0-1.6-0.7-3.1-1.8-4h6c-1.1,1-1.8,2.4-1.8,4c0,2.9,2.2,5.3,5,5.3s5-2.4,5-5.3c0-1.6-0.7-3.1-1.8-4h5.1   c-1.1,1-1.8,2.4-1.8,4c0,3.3,2.9,6,6.2,5.2l-1.5,2.4H32.2L30.7,85.2z M35.4,80.2c0,1.8-1.4,3.3-3,3.3c-1.7,0-3-1.5-3-3.3   s1.4-3.3,3-3.3C34,76.9,35.4,78.4,35.4,80.2z M27.4,79.7l-2.1-3.6h3.9C28.2,77,27.5,78.3,27.4,79.7z M47,80.2c0,1.8-1.3,3.3-3,3.3   s-3-1.5-3-3.3s1.4-3.3,3-3.3S47,78.4,47,80.2z M59.4,80.2c0,1.8-1.4,3.3-3,3.3s-3-1.5-3-3.3s1.4-3.3,3-3.3S59.4,78.4,59.4,80.2z    M68,76.9c1.7,0,3,1.5,3,3.3c0,4.4-6,4.4-6,0C65,78.4,66.3,76.9,68,76.9z M71.2,76.2h3.5l-1.8,3C72.7,77.9,72.1,76.9,71.2,76.2z    M64.6,56.4c-3.3,2.9-7.3,4.8-11,5.2l17.2-15.2C70.2,49.8,68,53.4,64.6,56.4z M58.2,50.4c3.3-2.9,7.3-4.7,10.9-5.2L52,60.4   C52.6,57,54.9,53.3,58.2,50.4z M63.2,41.3c-2.9,2.5-6.3,4.2-9.5,4.6l15.1-13.3C68.2,35.6,66.2,38.7,63.2,41.3z M57.6,36.1   c2.9-2.5,6.3-4.2,9.5-4.6L52,44.8C52.6,41.8,54.6,38.6,57.6,36.1z M55.4,22.7c0,5.2-1.7,10-4.5,13.2V9.4   C53.7,12.6,55.4,17.5,55.4,22.7z M44.4,22.7c0-5.2,1.7-10,4.5-13.2V36C46,32.7,44.3,27.9,44.4,22.7z M47.7,44.8L32.7,31.4   c3.2,0.5,6.7,2.1,9.5,4.6C45.1,38.6,47.1,41.8,47.7,44.8z M31,32.6l15.1,13.3c-3.2-0.5-6.7-2.1-9.5-4.6   C33.6,38.7,31.6,35.6,31,32.6z M47.6,60.4L30.5,45.2c3.7,0.5,7.6,2.3,10.9,5.2C44.8,53.3,47,57,47.6,60.4z M28.8,46.4l17.1,15.2   c-3.7-0.4-7.7-2.3-10.9-5.2C31.6,53.4,29.4,49.8,28.8,46.4z M23.3,68.1c0.5-1.1,1.8-2.9,4.7-2.9h43.9c2.3,0,4,0.8,4.8,2.3   c1,1.8,0.6,4.4-0.3,5.9l-0.5,0.8H24.1l-0.5-0.8l-0.1-0.1C22.5,72,22.4,69.9,23.3,68.1z M34.9,92.2l-1.5-2.5h33L65,92.2H34.9z" style="" fill="rgb(13,60,0)"></path></g></svg>