<svg xmlns="http://www.w3.org/2000/svg" viewBox="0 0 1000 1000" version="1.1" x="0px" y="0px" style="max-width:100%" height="100%"><g style="" fill="currentColor"><path fill="currentColor" opacity="1.00" d=" M 455.72 33.74 C 460.63 25.85 473.04 24.87 479.15 31.86 C 483.97 36.67 483.14 43.92 483.92 50.12 C 500.09 49.56 516.36 50.96 532.21 54.25 C 533.57 49.73 534.83 44.71 538.98 41.88 C 545.69 36.49 556.63 38.63 560.86 46.11 C 564.03 50.95 563.13 57.04 561.26 62.18 C 578.70 68.34 595.37 76.69 610.67 87.07 C 614.77 82.26 618.19 75.68 625.07 74.61 C 633.86 72.53 643.13 79.92 643.05 88.94 C 643.51 95.77 638.06 100.56 634.29 105.52 C 645.15 115.57 655.09 126.60 663.99 138.43 C 669.68 135.32 675.02 129.98 682.05 130.94 C 691.33 131.58 697.96 141.98 694.70 150.69 C 692.63 157.48 685.54 160.17 680.09 163.65 C 688.10 178.48 694.23 194.25 698.96 210.42 C 705.16 209.66 711.89 206.78 717.82 210.21 C 726.18 214.22 728.51 226.38 722.28 233.23 C 718.13 238.50 710.98 238.61 704.97 239.88 C 707.98 261.69 707.70 283.95 704.19 305.68 C 709.25 306.06 714.19 307.45 719.03 308.95 C 726.74 311.80 730.68 321.63 727.04 329.03 C 724.39 335.09 717.38 338.88 710.86 337.57 C 706.41 336.61 701.96 335.55 697.66 334.05 C 691.59 354.32 682.56 373.69 671.01 391.42 C 677.28 394.60 684.43 399.32 685.16 407.00 C 686.39 414.96 680.07 422.97 672.08 423.71 C 664.63 424.78 658.63 419.22 653.82 414.34 C 642.67 427.41 629.85 438.99 616.05 449.20 C 618.77 454.00 621.90 458.58 624.47 463.47 C 627.79 470.36 624.60 479.37 617.81 482.80 C 611.50 486.33 602.81 484.34 598.70 478.39 C 595.82 474.03 593.24 469.47 590.60 464.97 C 578.76 471.32 566.23 476.20 553.54 480.54 C 554.95 487.48 558.67 495.07 555.06 501.95 C 551.30 510.11 539.77 512.86 532.73 507.28 C 526.20 502.67 526.44 493.96 524.37 487.03 C 516.02 488.06 507.64 488.81 499.27 489.67 C 499.29 529.74 499.27 569.81 499.27 609.88 C 567.53 609.88 635.79 609.90 704.04 609.87 C 708.12 609.85 711.93 611.57 715.96 611.99 C 723.03 613.42 726.77 620.23 730.04 625.98 C 747.63 654.17 741.85 694.07 717.74 716.73 C 716.47 718.06 714.72 719.19 714.20 721.06 C 694.91 803.57 675.72 886.11 656.46 968.63 C 655.55 973.07 651.96 976.09 649.30 979.51 C 646.39 983.14 641.68 985.06 637.07 984.85 C 540.70 984.83 444.33 984.84 347.96 984.84 C 342.71 985.03 336.84 985.13 332.71 981.33 C 329.48 978.13 326.44 974.36 325.29 969.89 C 306.23 885.55 287.41 801.16 268.29 716.83 C 261.91 712.62 257.00 706.62 252.37 700.63 C 249.67 697.41 248.49 693.28 246.18 689.80 C 235.74 668.22 236.62 641.50 248.83 620.80 C 251.01 616.54 255.23 613.35 260.03 612.81 C 263.83 612.40 267.01 609.66 270.94 609.91 C 337.07 609.85 403.19 609.90 469.32 609.88 C 469.33 569.50 469.33 529.12 469.32 488.75 C 462.01 487.93 454.73 486.92 447.50 485.61 C 445.28 492.29 445.35 500.64 439.13 505.17 C 432.00 510.97 420.12 508.06 416.49 499.61 C 412.96 492.46 417.22 484.89 418.52 477.74 C 406.68 473.34 395.02 468.36 384.13 461.94 C 381.09 466.74 378.39 472.61 372.50 474.41 C 363.82 477.80 353.33 471.23 352.59 461.96 C 351.56 455.57 356.11 450.53 359.06 445.40 C 346.00 435.32 333.85 423.98 323.45 411.16 C 318.03 414.88 313.21 420.85 306.06 420.73 C 296.91 421.15 289.13 411.83 291.19 402.88 C 292.47 394.96 300.50 391.53 305.96 386.81 C 297.55 373.12 290.52 358.54 285.31 343.33 C 279.37 344.99 272.94 348.17 266.85 345.24 C 258.22 341.88 254.94 329.97 260.63 322.66 C 264.37 317.09 271.50 316.46 277.32 314.40 C 273.24 294.40 272.03 273.85 273.47 253.50 C 268.11 253.12 262.57 250.84 259.81 245.98 C 255.50 239.33 257.79 229.63 264.55 225.53 C 268.42 222.86 273.32 222.99 277.79 223.60 C 280.94 208.38 285.90 193.58 292.15 179.35 C 287.00 176.67 280.81 174.27 278.66 168.33 C 274.86 159.87 280.82 149.09 289.99 147.84 C 295.97 146.54 301.16 150.29 306.18 152.87 C 314.16 140.51 322.89 128.52 333.22 117.99 C 329.37 113.67 324.31 109.37 324.36 103.06 C 323.63 93.87 332.87 85.72 341.91 87.64 C 347.87 88.41 351.53 93.53 355.25 97.67 C 362.81 91.34 370.94 85.74 379.42 80.70 C 376.82 74.41 371.57 68.34 373.47 61.08 C 375.22 52.12 386.09 46.64 394.31 50.76 C 401.09 53.60 402.92 61.29 406.22 67.13 C 421.49 60.43 437.68 55.92 454.08 53.02 C 453.76 46.61 451.63 39.42 455.72 33.74 M 472.55 80.84 C 440.45 83.70 409.40 95.62 383.02 114.02 C 376.95 118.55 371.10 123.38 365.38 128.34 C 327.27 162.55 304.32 212.80 302.96 263.96 C 301.36 309.19 316.47 354.81 344.90 390.05 C 367.77 418.55 399.14 440.11 433.92 451.30 C 453.67 457.37 474.41 460.13 495.05 459.85 C 506.94 458.82 518.91 457.94 530.61 455.45 C 565.49 447.72 597.88 429.38 622.81 403.83 C 646.79 379.31 663.93 348.16 671.78 314.77 C 682.08 272.48 677.20 226.80 658.50 187.53 C 643.60 156.19 620.08 128.91 590.97 109.97 C 556.23 87.45 513.81 76.70 472.55 80.84 M 272.73 639.81 C 268.50 649.18 267.67 660.08 270.82 669.91 C 273.51 678.54 278.24 686.98 285.60 692.45 C 290.26 694.47 294.73 697.86 295.96 703.05 C 314.89 786.99 333.72 870.95 352.63 954.89 C 444.71 954.87 536.79 954.90 628.87 954.87 C 648.09 872.61 667.22 790.33 686.44 708.07 C 687.53 703.85 690.56 700.49 693.93 697.88 C 706.94 687.45 713.28 669.14 708.78 652.98 C 707.54 648.41 706.18 643.58 703.05 639.93 C 559.62 639.69 416.17 639.94 272.73 639.81 Z" style=""></path><path fill="currentColor" opacity="1.00" d=" M 457.44 100.52 C 465.39 98.23 474.38 103.78 475.89 111.91 C 477.51 118.38 473.39 124.08 470.61 129.54 C 467.56 135.83 459.74 139.28 453.07 137.13 C 445.90 135.23 441.06 127.43 442.47 120.15 C 443.31 116.00 445.90 112.50 447.65 108.71 C 449.49 104.69 453.17 101.63 457.44 100.52 Z" style=""></path><path fill="currentColor" opacity="1.00" d=" M 511.37 104.45 C 515.59 102.78 520.57 103.14 524.47 105.49 C 528.29 107.61 530.26 111.69 532.89 115.00 C 536.40 120.14 541.50 125.25 540.69 132.02 C 540.27 141.41 529.76 148.37 520.95 145.04 C 515.33 143.42 512.52 137.99 509.35 133.58 C 506.43 129.37 502.39 125.40 501.96 120.02 C 501.13 113.48 505.21 106.76 511.37 104.45 Z" style=""></path><path fill="currentColor" opacity="1.00" d=" M 583.34 131.50 C 589.36 128.97 596.94 130.97 600.81 136.26 C 603.08 139.72 605.04 143.38 606.95 147.05 C 610.39 154.39 606.43 163.94 598.88 166.81 C 592.02 169.85 583.34 166.65 579.94 160.00 C 577.60 155.53 574.11 151.27 573.98 146.00 C 573.62 139.82 577.58 133.74 583.34 131.50 Z" style=""></path><path fill="currentColor" opacity="1.00" d=" M 395.33 135.54 C 403.04 132.11 412.87 136.65 415.29 144.71 C 417.58 150.97 414.19 157.14 412.09 162.91 C 409.27 170.19 400.17 174.00 392.97 171.03 C 385.91 168.50 381.65 160.13 383.94 152.95 C 386.16 146.37 387.99 138.19 395.33 135.54 Z" style=""></path><path fill="currentColor" opacity="1.00" d=" M 492.37 167.63 C 501.26 165.20 511.03 172.68 510.82 181.92 C 510.56 187.60 511.91 193.76 509.04 198.98 C 505.98 204.83 498.77 208.07 492.36 206.41 C 486.19 205.02 481.25 199.33 480.95 192.98 C 480.80 188.98 480.81 184.97 480.97 180.98 C 481.30 174.65 486.24 169.04 492.37 167.63 Z" style=""></path><path fill="currentColor" opacity="1.00" d=" M 430.30 168.30 C 439.44 164.59 450.54 172.16 450.39 182.02 C 450.00 188.45 447.86 194.63 446.98 201.01 C 446.16 207.60 440.60 213.17 433.99 213.91 C 427.21 214.89 420.18 210.57 417.97 204.08 C 416.12 199.31 417.81 194.24 418.63 189.44 C 419.52 185.38 420.19 181.27 421.34 177.28 C 422.77 173.13 426.19 169.78 430.30 168.30 Z" style=""></path><path fill="currentColor" opacity="1.00" d=" M 553.42 182.67 C 558.71 180.68 565.05 181.97 569.09 185.95 C 573.11 189.77 573.84 195.56 575.64 200.55 C 576.87 205.47 579.39 210.35 578.46 215.55 C 577.41 222.05 571.63 227.41 565.05 227.88 C 558.77 228.56 552.31 224.76 549.94 218.89 C 548.48 215.16 547.68 211.21 546.38 207.43 C 545.16 203.40 543.17 199.36 543.76 195.03 C 544.32 189.52 548.23 184.57 553.42 182.67 Z" style=""></path><path fill="currentColor" opacity="1.00" d=" M 342.46 192.64 C 348.87 190.52 356.47 193.39 359.82 199.27 C 362.13 202.89 362.34 207.43 361.34 211.52 C 359.59 219.24 358.99 227.14 357.64 234.92 C 356.31 241.63 349.83 246.81 342.99 246.65 C 336.89 246.75 331.06 242.67 328.98 236.96 C 327.44 233.17 328.17 229.00 328.69 225.09 C 329.88 217.74 330.75 210.34 332.49 203.10 C 333.70 198.18 337.64 194.13 342.46 192.64 Z" style=""></path><path fill="currentColor" opacity="1.00" d=" M 612.40 197.65 C 619.81 195.12 628.68 199.48 631.07 206.95 C 633.77 216.47 635.94 226.15 637.54 235.92 C 638.59 241.43 636.16 247.35 631.60 250.59 C 627.02 254.00 620.44 254.39 615.48 251.56 C 611.56 249.41 608.73 245.43 608.02 241.02 C 606.87 234.62 605.69 228.23 604.04 221.94 C 603.12 217.98 601.49 214.00 602.11 209.86 C 602.82 204.26 607.02 199.33 612.40 197.65 Z" style=""></path><path fill="currentColor" opacity="1.00" d=" M 379.21 214.27 C 386.02 212.01 394.07 215.45 397.12 221.94 C 399.59 226.60 398.32 231.99 398.27 237.00 C 397.81 242.57 399.09 248.75 395.74 253.66 C 391.68 260.33 382.11 262.68 375.47 258.49 C 371.13 255.97 368.20 251.13 368.14 246.09 C 368.09 239.79 368.39 233.48 368.78 227.19 C 369.21 221.28 373.56 215.97 379.21 214.27 Z" style=""></path><path fill="currentColor" opacity="1.00" d=" M 495.37 229.50 C 504.50 226.60 514.83 234.41 514.36 244.01 C 513.93 250.19 515.56 256.87 512.71 262.66 C 509.59 268.99 501.62 272.39 494.91 270.10 C 488.86 268.31 484.37 262.35 484.41 256.03 C 484.38 251.71 484.36 247.38 484.47 243.07 C 484.68 236.80 489.35 231.12 495.37 229.50 Z" style=""></path><path fill="currentColor" opacity="1.00" d=" M 567.39 253.59 C 575.79 250.03 586.33 256.12 587.47 265.16 C 588.07 271.73 588.20 278.36 588.16 284.97 C 588.12 292.83 580.82 299.65 572.99 299.31 C 565.34 299.39 558.38 292.70 558.29 285.03 C 558.19 279.35 558.02 273.67 557.74 267.99 C 557.43 261.76 561.55 255.72 567.39 253.59 Z" style=""></path><path fill="currentColor" opacity="1.00" d=" M 425.48 257.68 C 433.64 255.16 443.03 261.04 444.24 269.51 C 444.75 275.30 446.74 281.50 444.12 287.06 C 441.37 293.29 434.03 297.02 427.38 295.46 C 421.58 294.28 416.72 289.38 415.78 283.50 C 415.22 279.70 414.72 275.87 414.54 272.02 C 414.39 265.48 419.20 259.35 425.48 257.68 Z" style=""></path><path fill="currentColor" opacity="1.00" d=" M 337.34 269.50 C 343.82 266.74 352.01 269.37 355.64 275.42 C 358.30 279.40 357.93 284.37 358.68 288.90 C 359.26 294.50 361.56 300.43 359.09 305.90 C 356.34 312.95 347.83 316.80 340.68 314.39 C 335.56 312.78 331.48 308.25 330.56 302.95 C 329.49 296.67 328.45 290.38 328.01 284.02 C 327.58 277.84 331.59 271.74 337.34 269.50 Z" style=""></path><path fill="currentColor" opacity="1.00" d=" M 383.29 286.43 C 389.34 284.10 396.73 286.27 400.52 291.53 C 403.43 295.27 403.51 300.20 404.69 304.61 C 405.93 310.58 408.98 316.93 406.10 322.92 C 402.73 331.41 391.07 334.75 383.75 329.24 C 377.93 325.49 377.24 318.14 375.65 312.04 C 374.76 307.75 373.30 303.46 373.58 299.04 C 374.05 293.42 378.01 288.34 383.29 286.43 Z" style=""></path><path fill="currentColor" opacity="1.00" d=" M 620.34 287.50 C 627.05 284.64 635.53 287.58 638.99 294.00 C 642.22 299.31 640.44 305.70 640.12 311.49 C 639.64 318.67 633.24 324.79 626.07 325.02 C 619.81 325.49 613.59 321.53 611.32 315.70 C 609.34 311.00 610.67 305.85 610.93 300.97 C 611.12 295.14 614.89 289.61 620.34 287.50 Z" style=""></path><path fill="currentColor" opacity="1.00" d=" M 497.42 304.70 C 505.90 300.72 516.90 306.74 518.09 316.02 C 518.50 322.32 518.22 328.66 518.25 334.97 C 518.26 343.62 509.51 350.78 501.03 349.22 C 493.78 348.25 487.98 341.37 488.32 334.05 C 488.53 327.64 487.82 321.14 488.78 314.78 C 489.91 310.32 493.18 306.49 497.42 304.70 Z" style=""></path><path fill="currentColor" opacity="1.00" d=" M 562.32 325.38 C 569.79 322.30 579.12 326.63 581.71 334.25 C 583.88 339.75 581.46 345.48 580.39 350.92 C 578.75 356.83 578.19 363.91 572.73 367.74 C 565.76 373.36 554.25 370.77 550.38 362.70 C 547.56 357.82 548.92 352.09 550.46 347.05 C 551.81 342.45 552.25 337.60 554.01 333.12 C 555.61 329.58 558.68 326.75 562.32 325.38 Z" style=""></path><path fill="currentColor" opacity="1.00" d=" M 443.43 327.56 C 450.25 326.20 457.65 330.25 460.05 336.79 C 462.13 342.51 465.88 348.46 463.69 354.74 C 461.34 363.50 450.24 368.20 442.35 363.65 C 435.99 360.57 434.40 353.16 431.97 347.19 C 428.77 338.90 434.70 328.90 443.43 327.56 Z" style=""></path><path fill="currentColor" opacity="1.00" d=" M 357.39 343.62 C 364.26 340.78 372.92 343.98 376.15 350.70 C 378.74 356.44 382.97 362.42 381.03 369.04 C 379.07 377.91 368.17 383.12 360.07 378.89 C 353.84 376.21 351.89 369.26 349.19 363.67 C 345.55 356.22 349.65 346.43 357.39 343.62 Z" style=""></path><path fill="currentColor" opacity="1.00" d=" M 607.41 357.63 C 613.34 355.85 620.20 358.19 623.76 363.27 C 626.72 367.32 627.42 372.85 625.64 377.54 C 623.66 382.81 622.36 389.06 617.18 392.21 C 609.59 397.58 597.76 393.76 594.84 384.92 C 592.30 378.90 595.52 372.80 597.45 367.15 C 598.93 362.58 602.81 358.96 607.41 357.63 Z" style=""></path><path fill="currentColor" opacity="1.00" d=" M 420.29 378.30 C 424.81 376.65 430.11 377.33 434.04 380.14 C 437.63 382.59 439.35 386.75 441.80 390.19 C 444.99 395.02 449.61 399.77 448.95 406.06 C 448.75 415.24 438.86 422.42 430.07 419.71 C 423.60 418.24 420.46 411.97 416.99 406.99 C 414.29 402.61 410.47 398.42 410.43 392.98 C 410.07 386.62 414.29 380.40 420.29 378.30 Z" style=""></path><path fill="currentColor" opacity="1.00" d=" M 542.34 385.37 C 548.64 382.81 556.44 385.30 560.14 391.00 C 562.98 395.15 563.51 400.78 561.42 405.38 C 558.87 411.04 556.01 416.57 553.02 422.02 C 549.33 428.77 540.01 431.42 533.28 427.74 C 526.37 424.41 523.11 415.30 526.44 408.37 C 528.85 403.48 531.56 398.74 533.77 393.75 C 535.38 389.97 538.45 386.80 542.34 385.37 Z" style=""></path><path fill="currentColor" opacity="1.00" d=" M 480.38 396.52 C 484.01 395.53 488.04 395.85 491.38 397.63 C 495.75 399.81 498.06 404.34 501.12 407.92 C 506.00 413.80 505.18 423.33 499.39 428.32 C 493.85 433.55 484.35 433.42 478.98 428.01 C 475.86 424.41 472.57 420.76 470.52 416.42 C 467.18 408.53 472.11 398.65 480.38 396.52 Z" style=""></path><path fill="currentColor" opacity="1.00" d=" M 325.18 692.25 C 367.45 691.97 409.74 692.17 452.02 692.15 C 460.55 692.08 467.74 700.54 466.44 708.95 C 465.66 716.07 459.19 722.07 451.99 722.05 C 410.32 722.12 368.66 722.04 327.00 722.10 C 321.01 722.33 315.19 718.48 312.95 712.95 C 308.85 704.18 315.52 692.86 325.18 692.25 Z" style=""></path><path fill="currentColor" opacity="1.00" d=" M 484.33 694.54 C 489.39 692.87 494.82 693.93 500.05 693.63 C 505.35 693.34 510.68 696.01 513.50 700.54 C 517.01 705.86 516.52 713.42 512.36 718.25 C 509.38 721.89 504.63 723.85 499.96 723.61 C 492.81 723.42 484.25 725.03 478.85 719.07 C 471.29 711.91 474.44 697.80 484.33 694.54 Z" style=""></path></g></svg>