<svg xmlns="http://www.w3.org/2000/svg" viewBox="0 0 1000 1000" version="1.1" x="0px" y="0px" style="max-width:100%" height="100%"><g style="" fill="currentColor"><path fill="currentColor" opacity="1.00" d=" M 472.28 272.31 C 478.25 265.52 490.20 266.23 495.31 273.70 C 499.89 279.55 497.62 287.26 497.61 294.03 C 505.37 294.82 512.94 296.78 520.42 298.94 C 523.12 292.28 524.00 283.72 530.95 279.93 C 538.48 275.30 549.41 279.13 552.39 287.45 C 555.65 295.78 549.74 303.64 547.71 311.50 C 554.80 315.68 561.49 320.51 567.79 325.81 C 573.11 319.94 581.56 319.58 588.86 318.38 C 588.83 311.29 586.23 303.18 591.17 297.09 C 596.50 289.57 608.78 289.23 614.52 296.45 C 619.44 301.87 617.74 309.62 618.92 316.23 C 623.63 317.18 628.66 316.85 633.46 317.75 C 642.19 318.71 650.68 321.01 659.13 323.33 C 660.94 317.88 663.09 312.56 665.21 307.24 C 668.09 300.23 676.84 296.52 683.90 299.25 C 691.41 301.72 695.83 310.74 693.04 318.18 C 690.94 323.63 689.03 329.17 686.51 334.45 C 697.63 340.28 708.11 347.33 717.70 355.45 C 721.34 351.59 725.21 347.96 728.99 344.24 C 734.50 338.86 744.13 339.01 749.54 344.45 C 755.09 349.56 755.72 358.98 750.76 364.70 C 746.88 368.88 742.70 372.78 738.62 376.75 C 747.85 388.04 755.79 400.44 762.03 413.62 C 767.57 411.59 773.75 408.79 779.64 411.33 C 788.09 414.32 791.94 425.54 787.01 433.07 C 784.13 438.37 778.00 439.93 772.66 441.55 C 777.94 460.19 780.36 479.66 779.72 499.02 C 785.21 500.30 790.82 501.16 796.21 502.83 C 803.61 505.50 807.76 514.59 804.83 521.92 C 802.62 528.31 795.65 532.66 788.92 531.64 C 784.64 530.93 780.45 529.74 776.19 528.91 C 773.79 542.00 769.67 554.74 764.13 566.83 C 768.45 569.92 772.78 572.99 777.06 576.15 C 782.92 580.51 784.55 589.40 780.66 595.58 C 776.87 602.31 767.50 604.96 760.78 601.14 C 756.96 598.86 753.55 595.98 749.88 593.49 C 743.14 603.35 735.70 612.71 727.23 621.14 C 730.47 626.91 734.27 632.47 736.22 638.86 C 745.28 664.63 738.80 695.15 719.74 714.78 C 717.74 717.12 714.48 718.76 713.94 722.04 C 695.25 802.38 676.48 882.69 657.78 963.02 C 656.80 966.97 656.33 971.34 653.49 974.50 C 650.66 977.63 648.39 981.55 644.40 983.36 C 640.89 985.22 636.82 984.80 633.00 984.85 C 535.98 984.81 438.96 984.87 341.93 984.82 C 333.66 984.75 327.65 977.20 325.30 969.95 C 306.23 885.58 287.43 801.15 268.27 716.80 C 261.33 712.21 256.10 705.56 251.16 698.99 C 247.19 691.72 242.92 684.41 241.34 676.16 C 236.36 657.77 239.20 637.50 248.69 621.02 C 241.20 613.78 234.96 605.43 228.91 596.99 C 224.91 600.01 220.30 603.07 215.02 602.31 C 205.91 601.74 199.08 591.63 202.13 582.98 C 203.66 576.99 209.47 574.03 214.16 570.79 C 209.04 560.00 205.43 548.62 202.54 537.06 C 197.23 538.42 191.13 537.88 186.99 533.98 C 180.86 528.78 180.31 518.60 185.81 512.76 C 188.86 509.09 193.69 507.95 198.18 507.25 C 196.79 494.44 197.69 481.49 199.30 468.75 C 193.88 467.62 187.69 466.57 184.32 461.64 C 178.79 454.69 181.34 443.27 189.35 439.39 C 194.47 436.36 200.46 438.13 205.81 439.47 C 209.24 427.54 214.76 416.36 220.33 405.31 C 215.20 401.06 208.02 397.96 206.36 390.87 C 203.68 382.14 210.81 372.32 219.91 372.06 C 226.85 371.28 231.83 376.77 237.05 380.36 C 241.89 374.37 247.13 368.71 252.57 363.26 C 249.20 357.94 243.85 352.94 244.61 346.06 C 244.94 336.64 255.36 329.63 264.22 332.84 C 270.13 334.43 272.80 340.28 276.36 344.64 C 283.59 339.36 291.76 335.54 299.83 331.73 C 298.33 325.36 294.85 318.48 298.16 312.07 C 301.78 303.72 313.47 300.71 320.63 306.38 C 325.88 309.92 326.69 316.56 328.30 322.17 C 337.76 319.79 347.49 318.61 357.21 318.04 C 358.34 310.76 356.62 302.08 362.35 296.36 C 368.36 289.72 380.15 290.50 385.23 297.89 C 390.05 304.13 387.35 312.30 387.20 319.44 C 392.11 320.18 396.98 321.16 401.84 322.15 C 408.34 316.97 415.40 312.56 422.59 308.41 C 421.55 301.21 417.63 293.43 421.45 286.42 C 425.42 278.17 437.34 275.72 444.23 281.76 C 449.16 285.43 449.72 291.88 450.90 297.41 C 456.46 296.13 462.00 294.75 467.63 293.75 C 468.43 286.55 466.70 278.02 472.28 272.31 M 451.38 328.41 C 426.96 337.12 406.73 355.04 392.00 376.05 C 369.25 408.66 358.37 448.50 357.08 487.97 C 356.77 510.43 358.85 533.10 365.23 554.71 C 370.45 574.27 378.71 593.10 390.04 609.90 C 451.80 609.82 513.56 609.98 575.32 609.82 C 585.78 593.15 594.23 575.16 599.42 556.14 C 611.89 512.19 610.70 464.38 595.79 421.17 C 585.55 391.95 568.57 364.38 543.99 345.12 C 528.21 332.97 509.08 324.63 489.09 323.29 C 476.29 322.07 463.55 324.66 451.38 328.41 M 589.70 348.53 C 595.77 355.82 601.02 363.74 605.93 371.84 C 611.91 368.49 617.59 362.66 625.06 364.02 C 633.89 365.02 640.07 374.82 637.25 383.25 C 634.78 391.56 625.59 394.11 619.34 398.87 C 622.61 406.34 625.13 414.12 627.52 421.92 C 632.05 420.91 636.52 419.66 641.07 418.76 C 647.65 417.42 654.71 421.31 657.32 427.46 C 660.85 434.86 656.84 444.59 649.16 447.40 C 644.28 449.00 639.18 449.81 634.24 451.19 C 635.73 459.18 636.61 467.27 637.22 475.37 C 644.01 476.17 652.10 475.28 657.19 480.82 C 663.73 487.13 662.40 499.11 654.62 503.82 C 649.64 507.38 643.31 506.02 637.68 505.46 C 637.26 515.12 636.31 524.75 634.87 534.32 C 640.80 536.39 646.31 539.46 652.04 542.03 C 657.50 544.33 661.26 550.11 661.04 556.06 C 661.09 563.24 655.21 569.83 648.08 570.65 C 640.80 571.59 634.79 566.50 628.37 563.99 C 623.92 579.89 617.73 595.31 609.98 609.89 C 638.98 609.85 667.97 609.92 696.97 609.86 C 698.25 607.60 699.82 605.51 701.79 603.80 C 709.18 597.13 715.89 589.69 721.59 581.53 C 730.38 569.88 736.43 556.48 741.54 542.89 C 745.78 530.33 748.46 517.20 749.41 503.97 C 752.39 465.30 740.18 425.55 715.33 395.68 C 709.11 388.91 702.98 381.99 695.77 376.24 C 682.73 365.69 667.76 357.30 651.61 352.62 C 631.81 345.84 610.22 344.73 589.70 348.53 M 282.97 376.94 C 271.77 385.34 262.32 395.88 254.34 407.34 C 246.90 417.55 241.76 429.20 236.94 440.81 C 228.91 463.10 225.62 487.28 228.62 510.84 C 230.02 522.11 232.15 533.33 235.70 544.14 C 243.87 567.59 257.59 589.26 276.18 605.83 C 278.26 607.43 280.03 610.29 283.01 609.90 C 307.01 609.87 331.02 609.88 355.02 609.90 C 350.13 600.96 346.13 591.58 342.49 582.08 C 337.95 583.95 332.58 584.32 328.23 581.76 C 321.60 578.29 318.52 569.50 321.68 562.69 C 323.74 557.44 329.10 554.98 333.37 551.84 C 331.32 542.28 329.75 532.62 328.53 522.92 C 323.36 524.47 317.34 524.67 312.88 521.17 C 305.93 516.38 304.69 505.55 310.35 499.30 C 314.36 494.26 321.21 493.98 326.97 492.48 C 327.18 482.80 327.80 473.12 328.88 463.50 C 323.44 462.69 317.26 461.96 313.65 457.27 C 307.66 450.57 309.70 438.85 317.65 434.62 C 322.68 431.42 328.76 432.94 334.19 434.01 C 336.48 424.64 339.21 415.36 342.73 406.37 C 337.55 402.22 330.14 399.84 327.84 392.99 C 324.50 384.72 330.17 374.52 338.97 373.07 C 345.07 371.54 350.49 375.23 355.19 378.57 C 361.01 367.89 367.83 357.75 375.41 348.24 C 342.47 345.59 308.52 355.90 282.97 376.94 M 272.73 639.80 C 267.27 651.59 267.81 665.73 273.70 677.25 C 277.08 684.11 281.75 691.03 288.96 694.24 C 292.63 696.13 295.25 699.79 296.16 703.80 C 314.95 787.50 333.80 871.19 352.63 954.88 C 444.71 954.87 536.79 954.90 628.87 954.87 C 648.09 872.60 667.22 790.31 686.44 708.05 C 687.53 703.84 690.56 700.49 693.91 697.88 C 706.92 687.48 713.26 669.19 708.80 653.04 C 707.55 648.46 706.20 643.58 703.04 639.94 C 559.61 639.68 416.17 639.95 272.73 639.80 Z" style=""></path><path fill="currentColor" opacity="1.00" d=" M 512.50 344.73 C 515.99 343.84 519.83 344.13 523.05 345.79 C 527.50 347.89 529.93 352.42 532.83 356.15 C 537.24 362.01 536.26 371.01 530.79 375.85 C 525.46 380.97 516.32 381.14 510.83 376.19 C 507.70 372.93 504.92 369.26 502.70 365.32 C 498.82 357.30 503.87 346.80 512.50 344.73 Z" style=""></path><path fill="currentColor" opacity="1.00" d=" M 441.52 348.65 C 449.95 346.58 459.06 353.24 459.61 361.90 C 460.46 368.69 455.41 373.93 452.56 379.56 C 450.59 383.51 447.45 387.07 443.11 388.40 C 436.08 390.98 427.59 387.21 424.67 380.35 C 422.34 375.46 423.24 369.59 426.20 365.17 C 430.16 358.84 433.17 350.15 441.52 348.65 Z" style=""></path><path fill="currentColor" opacity="1.00" d=" M 481.43 372.59 C 489.82 369.87 499.58 376.27 500.37 385.07 C 500.63 390.95 501.45 397.66 497.37 402.52 C 492.07 409.66 480.40 410.12 474.56 403.40 C 470.04 398.82 470.35 392.00 470.61 386.06 C 470.83 379.85 475.47 374.22 481.43 372.59 Z" style=""></path><path fill="currentColor" opacity="1.00" d=" M 300.40 385.60 C 308.33 383.35 317.26 388.87 318.80 396.96 C 320.35 403.26 316.80 409.26 312.72 413.75 C 308.18 418.46 300.44 419.54 294.79 416.22 C 288.76 412.96 285.67 405.29 287.78 398.76 C 290.09 393.06 294.05 387.14 300.40 385.60 Z" style=""></path><path fill="currentColor" opacity="1.00" d=" M 540.46 390.68 C 546.58 388.90 553.67 391.52 557.04 396.95 C 558.93 400.20 560.34 403.71 561.79 407.18 C 564.32 413.31 562.05 420.93 556.63 424.72 C 551.59 428.50 544.18 428.54 539.12 424.79 C 534.31 421.52 532.97 415.53 530.56 410.59 C 527.13 402.70 532.16 392.77 540.46 390.68 Z" style=""></path><path fill="currentColor" opacity="1.00" d=" M 676.41 400.60 C 683.33 397.71 692.01 401.04 695.22 407.81 C 697.72 412.95 701.78 417.99 700.73 424.08 C 699.85 433.30 689.29 439.72 680.69 436.22 C 673.81 433.94 671.29 426.60 668.23 420.77 C 664.52 413.31 668.60 403.40 676.41 400.60 Z" style=""></path><path fill="currentColor" opacity="1.00" d=" M 414.40 406.49 C 421.78 404.27 430.27 408.77 432.61 416.10 C 434.95 422.76 431.21 429.31 429.81 435.73 C 428.07 443.80 418.98 449.15 411.09 446.64 C 403.21 444.61 398.30 435.53 400.88 427.80 C 402.50 422.83 403.24 417.48 405.78 412.86 C 407.73 409.76 410.89 407.48 414.40 406.49 Z" style=""></path><path fill="currentColor" opacity="1.00" d=" M 281.44 421.51 C 289.15 419.50 297.72 424.65 299.49 432.43 C 301.36 439.18 296.92 445.23 295.42 451.57 C 294.31 456.61 291.59 461.64 286.66 463.82 C 279.21 467.70 269.11 463.77 266.21 455.89 C 263.22 448.45 267.65 440.96 269.74 433.91 C 271.26 428.16 275.37 422.78 281.44 421.51 Z" style=""></path><path fill="currentColor" opacity="1.00" d=" M 484.26 424.39 C 492.67 421.08 502.99 427.04 504.15 436.02 C 504.64 442.34 504.21 448.69 504.38 455.03 C 504.76 461.11 501.04 467.15 495.42 469.51 C 488.02 472.99 478.38 469.05 475.51 461.41 C 473.30 454.52 474.89 447.07 474.38 439.96 C 473.80 433.31 477.90 426.57 484.26 424.39 Z" style=""></path><path fill="currentColor" opacity="1.00" d=" M 558.41 441.57 C 564.06 440.13 570.41 442.30 573.92 446.97 C 577.23 451.23 577.25 456.88 578.56 461.90 C 579.69 468.63 582.48 476.19 578.38 482.47 C 573.85 490.33 561.97 492.00 555.48 485.64 C 550.44 481.39 550.63 474.36 549.31 468.46 C 548.51 463.64 546.64 458.89 547.21 453.95 C 547.99 448.05 552.64 442.96 558.41 441.57 Z" style=""></path><path fill="currentColor" opacity="1.00" d=" M 695.37 450.48 C 703.60 447.56 713.38 453.46 714.64 462.10 C 715.39 469.00 718.38 476.41 715.12 483.08 C 711.86 490.03 702.86 493.38 695.86 490.23 C 690.86 488.19 687.28 483.28 686.75 477.92 C 686.22 473.25 685.01 468.64 684.93 463.92 C 685.18 457.85 689.54 452.23 695.37 450.48 Z" style=""></path><path fill="currentColor" opacity="1.00" d=" M 402.46 469.61 C 410.88 466.94 420.58 473.26 421.44 482.06 C 421.70 487.73 420.94 493.39 420.97 499.07 C 421.14 505.71 416.35 512.00 409.93 513.65 C 403.40 515.60 395.87 512.30 392.76 506.27 C 390.12 501.59 391.19 496.04 391.24 490.94 C 391.60 486.57 391.10 481.97 392.92 477.87 C 394.69 473.89 398.28 470.82 402.46 469.61 Z" style=""></path><path fill="currentColor" opacity="1.00" d=" M 270.35 482.56 C 278.53 480.50 287.52 486.73 288.41 495.12 C 288.73 499.74 288.74 504.39 288.90 509.03 C 289.18 516.99 281.96 524.13 274.03 523.94 C 266.81 524.16 260.00 518.35 259.15 511.16 C 258.71 506.47 258.63 501.75 258.61 497.04 C 258.51 490.23 263.72 483.93 270.35 482.56 Z" style=""></path><path fill="currentColor" opacity="1.00" d=" M 485.38 495.61 C 492.07 492.84 500.39 495.92 503.81 502.26 C 506.76 507.34 505.43 513.43 505.73 519.01 C 506.05 524.91 502.42 530.72 497.04 533.13 C 490.57 536.25 482.08 533.85 478.26 527.76 C 474.64 522.55 476.02 515.89 475.76 509.96 C 475.52 503.76 479.56 497.74 485.38 495.61 Z" style=""></path><path fill="currentColor" opacity="1.00" d=" M 698.39 501.56 C 707.25 499.28 716.85 506.86 716.59 516.03 C 716.11 523.07 714.67 530.02 713.28 536.93 C 712.41 542.15 708.74 546.83 703.73 548.65 C 696.22 551.73 686.85 547.40 684.31 539.71 C 682.35 534.89 684.24 529.81 685.09 524.99 C 685.93 521.03 686.23 516.99 687.00 513.03 C 688.07 507.38 692.81 502.76 698.39 501.56 Z" style=""></path><path fill="currentColor" opacity="1.00" d=" M 565.49 518.64 C 573.67 516.36 582.84 522.49 583.87 530.91 C 584.30 537.28 583.35 543.65 582.85 550.00 C 582.28 555.12 582.43 560.84 578.89 565.00 C 574.30 570.99 565.04 572.43 558.86 568.11 C 554.27 565.10 551.60 559.44 552.30 553.99 C 553.11 546.64 553.78 539.28 554.16 531.90 C 554.53 525.63 559.41 520.07 565.49 518.64 Z" style=""></path><path fill="currentColor" opacity="1.00" d=" M 404.32 530.38 C 410.14 528.81 416.87 530.50 420.61 535.39 C 425.16 541.26 424.08 549.18 425.97 556.00 C 427.95 562.66 424.98 570.52 418.76 573.80 C 412.44 577.48 403.65 575.55 399.42 569.59 C 396.39 565.72 396.19 560.64 395.23 556.03 C 394.55 551.75 393.43 547.45 393.78 543.09 C 394.26 537.21 398.78 532.12 404.32 530.38 Z" style=""></path><path fill="currentColor" opacity="1.00" d=" M 279.19 534.26 C 286.17 532.92 293.68 537.36 295.84 544.14 C 298.09 551.25 300.91 558.17 304.18 564.87 C 307.41 571.38 304.88 579.96 298.70 583.74 C 293.46 587.24 286.02 586.83 281.17 582.81 C 277.61 580.04 276.14 575.61 274.29 571.68 C 271.51 565.26 268.80 558.76 267.01 551.99 C 265.13 544.01 271.12 535.44 279.19 534.26 Z" style=""></path><path fill="currentColor" opacity="1.00" d=" M 485.39 554.53 C 494.26 552.23 503.84 559.77 503.62 568.93 C 503.36 574.76 504.81 581.20 501.47 586.42 C 497.93 592.48 489.85 595.22 483.34 592.61 C 477.40 590.44 473.36 584.24 473.69 577.93 C 473.85 573.21 473.02 568.29 474.67 563.77 C 476.41 559.15 480.57 555.58 485.39 554.53 Z" style=""></path><path fill="currentColor" opacity="1.00" d=" M 678.21 561.25 C 685.03 558.67 693.31 562.08 696.50 568.59 C 698.97 573.30 698.55 579.20 695.71 583.67 C 692.34 589.09 690.02 595.92 684.00 599.01 C 677.78 602.37 669.38 600.47 665.21 594.77 C 661.42 589.93 661.09 582.69 664.56 577.59 C 668.57 571.78 670.70 563.55 678.21 561.25 Z" style=""></path><path fill="currentColor" opacity="1.00" d=" M 325.15 692.25 C 366.07 691.94 407.01 692.24 447.94 692.10 C 452.61 691.82 457.67 692.39 461.27 695.69 C 467.32 700.60 468.32 710.33 463.35 716.35 C 460.46 720.08 455.77 722.26 451.05 722.08 C 409.37 722.05 367.68 722.11 326.00 722.06 C 318.22 721.96 311.51 714.76 311.79 707.02 C 311.65 699.65 317.79 692.84 325.15 692.25 Z" style=""></path><path fill="currentColor" opacity="1.00" d=" M 484.37 694.53 C 489.38 692.89 494.76 693.91 499.93 693.63 C 505.50 693.29 511.12 696.23 513.85 701.12 C 517.26 706.83 516.19 714.74 511.37 719.33 C 508.17 722.58 503.51 723.91 499.04 723.62 C 493.23 723.31 486.80 724.70 481.63 721.30 C 475.47 717.62 472.85 709.22 475.80 702.68 C 477.39 698.94 480.56 695.93 484.37 694.53 Z" style=""></path></g></svg>