<svg xmlns="http://www.w3.org/2000/svg" viewBox="0 0 1000 1000" version="1.1" x="0px" y="0px" style="max-width:100%" height="100%"><g style="" fill="currentColor"><path fill="currentColor" opacity="1.00" d=" M 475.41 44.62 C 482.20 43.13 488.58 46.87 494.59 49.50 C 516.90 59.55 534.63 78.61 544.18 101.04 C 556.54 103.01 568.53 107.26 579.33 113.61 C 583.22 115.88 587.44 118.33 589.41 122.61 C 591.61 126.78 591.18 131.76 589.54 136.03 C 591.20 141.53 590.29 147.29 589.58 152.87 C 587.08 170.41 579.82 187.24 568.70 201.05 C 577.66 203.98 586.59 207.01 595.40 210.37 C 596.01 202.97 602.51 196.61 610.00 196.61 C 617.94 196.17 625.29 203.05 625.39 210.99 C 625.71 215.43 623.58 219.56 620.64 222.74 C 633.30 229.46 645.21 237.51 656.55 246.26 C 657.10 243.30 657.94 240.28 659.96 237.95 C 666.21 229.93 680.43 230.57 685.75 239.31 C 689.68 245.16 688.60 253.68 683.37 258.38 C 681.26 260.46 678.43 261.49 675.68 262.35 C 686.44 272.20 696.22 283.11 705.16 294.62 C 707.47 285.94 717.96 280.79 726.12 284.90 C 735.98 289.19 737.85 304.07 730.03 311.12 C 727.34 313.80 723.58 314.86 719.92 315.32 C 730.50 331.72 739.20 349.31 746.11 367.55 C 752.80 361.09 765.20 361.56 770.62 369.42 C 775.39 375.78 773.79 385.74 767.24 390.25 C 763.54 393.19 758.64 393.31 754.14 393.07 C 758.72 409.92 761.52 427.26 762.64 444.69 C 768.51 442.91 775.56 443.24 780.15 447.76 C 786.28 453.24 786.39 463.77 780.37 469.39 C 775.93 473.95 768.97 474.49 763.11 472.88 C 762.46 490.95 760.07 508.98 755.79 526.55 C 760.20 526.19 764.99 526.43 768.62 529.30 C 775.11 533.79 776.74 543.63 772.08 549.99 C 766.88 557.69 755.01 558.50 748.11 552.67 C 740.91 573.82 730.92 594.01 718.70 612.71 C 725.85 616.54 728.94 624.46 732.92 631.06 C 746.75 658.69 740.54 694.78 718.27 716.21 C 716.58 717.95 714.27 719.47 713.93 722.07 C 695.24 802.40 676.47 882.71 657.78 963.03 C 656.81 966.98 656.32 971.32 653.50 974.49 C 650.68 977.63 648.39 981.54 644.41 983.36 C 640.57 985.36 636.14 984.76 631.98 984.84 C 536.63 984.84 441.27 984.81 345.92 984.86 C 341.06 985.17 335.74 984.44 332.16 980.82 C 329.22 977.69 326.36 974.15 325.29 969.91 C 306.23 885.57 287.42 801.16 268.28 716.84 C 261.90 712.60 256.98 706.59 252.33 700.59 C 249.69 697.34 248.42 693.27 246.18 689.78 C 235.42 667.58 236.68 639.89 249.94 619.00 C 252.01 615.72 255.58 613.92 259.13 612.70 C 248.86 597.26 240.42 580.63 233.54 563.42 C 226.84 563.99 219.06 565.15 213.41 560.58 C 207.58 556.12 206.02 547.18 210.00 541.00 C 212.80 536.23 218.33 533.68 223.76 533.76 C 218.45 514.01 215.40 493.65 214.66 473.20 C 208.63 475.43 201.30 473.89 197.25 468.73 C 191.57 461.72 192.89 449.65 200.83 444.83 C 205.05 441.99 210.50 442.04 215.16 443.69 C 216.49 425.42 219.50 407.22 224.57 389.60 C 217.37 391.48 209.15 387.71 206.49 380.65 C 203.27 373.20 207.39 363.75 215.03 361.04 C 221.16 358.53 228.33 360.89 232.46 365.88 C 237.97 350.70 245.10 336.10 253.53 322.34 C 244.23 321.83 236.63 312.06 239.13 302.94 C 240.93 294.89 250.10 289.64 257.96 292.21 C 262.37 293.43 265.77 296.88 267.67 300.96 C 277.96 287.75 288.56 274.67 301.05 263.44 C 295.47 260.91 291.14 255.34 291.42 249.01 C 291.29 240.82 298.94 233.62 307.11 234.26 C 313.96 234.37 319.64 239.79 321.31 246.24 C 331.22 238.17 342.18 231.54 353.18 225.09 C 347.34 218.73 347.10 207.58 353.72 201.68 C 359.23 196.44 368.70 196.53 374.11 201.86 C 377.04 204.47 378.38 208.29 378.97 212.07 C 388.09 208.15 397.37 204.54 406.88 201.68 C 392.87 188.43 384.16 170.16 380.36 151.41 C 379.52 146.35 378.68 141.24 378.76 136.10 C 378.99 132.17 380.88 128.35 383.95 125.87 C 387.09 123.38 389.40 119.73 393.33 118.36 C 399.82 115.94 406.44 113.61 413.32 112.64 C 420.43 85.62 440.32 62.61 465.36 50.50 C 468.75 48.61 471.42 45.33 475.41 44.62 M 445.28 111.81 C 454.13 113.04 462.66 115.78 470.92 119.12 C 482.69 110.49 496.39 104.54 510.72 101.74 C 503.53 90.66 493.14 81.55 480.98 76.33 C 465.25 83.18 452.07 96.00 445.28 111.81 M 498.43 137.20 C 513.78 151.76 524.63 171.06 528.45 191.91 C 531.18 192.39 533.91 192.84 536.65 193.27 C 539.14 187.83 544.28 184.37 547.49 179.43 C 556.44 167.45 560.28 152.53 561.05 137.79 C 541.86 127.44 517.87 127.56 498.43 137.20 M 409.53 144.31 C 411.56 155.38 415.98 166.07 422.91 174.98 C 428.57 181.90 435.59 187.48 442.57 193.00 C 460.54 190.10 478.77 188.65 496.97 189.25 C 491.09 171.20 477.94 155.24 460.39 147.55 C 444.77 139.40 426.15 139.44 409.53 144.31 M 517.68 221.08 C 556.83 239.58 590.86 268.34 616.36 303.26 C 620.32 297.20 628.65 294.47 635.28 297.64 C 642.49 300.66 646.16 309.81 643.03 316.98 C 641.16 321.89 636.53 325.08 631.57 326.30 C 639.52 340.05 646.57 354.37 652.13 369.27 C 657.18 365.70 664.30 365.08 669.54 368.62 C 678.38 374.05 678.81 388.50 670.60 394.69 C 667.96 396.88 664.53 397.70 661.18 397.95 C 665.80 415.57 668.66 433.65 669.71 451.83 C 674.88 448.91 681.67 448.73 686.55 452.36 C 693.36 456.93 694.92 467.29 689.80 473.68 C 685.40 479.75 676.54 481.21 670.13 477.58 C 669.87 493.89 667.69 510.08 664.57 526.08 C 668.26 526.07 672.08 526.78 675.04 529.13 C 681.76 533.89 683.04 544.36 677.68 550.61 C 672.97 556.68 663.76 557.74 657.45 553.58 C 651.36 573.18 643.17 592.14 632.85 609.89 C 649.90 609.88 666.95 609.87 684.00 609.89 C 705.61 581.34 720.81 547.96 728.16 512.91 C 736.39 473.81 734.79 432.69 723.41 394.39 C 712.84 358.19 693.62 324.60 667.93 297.01 C 653.77 281.33 637.09 268.14 619.40 256.67 C 603.57 246.98 586.89 238.46 569.18 232.79 C 552.56 226.90 535.28 222.49 517.68 221.08 M 394.81 237.90 C 379.02 244.23 364.34 252.93 350.12 262.19 C 317.55 284.69 290.51 315.16 272.15 350.23 C 248.56 395.23 239.50 447.71 246.96 497.98 C 252.70 538.08 268.76 576.65 293.10 609.02 C 293.94 610.30 295.68 609.72 296.95 609.92 C 316.22 609.85 335.50 609.88 354.77 609.90 C 346.20 596.00 338.80 581.35 332.82 566.15 C 326.80 568.97 318.97 568.68 313.90 564.08 C 308.18 559.19 307.27 549.85 311.88 543.92 C 314.52 540.19 318.93 538.30 323.35 537.73 C 318.56 520.88 315.48 503.57 314.02 486.12 C 308.98 488.27 302.85 488.12 298.40 484.71 C 289.95 478.81 290.09 464.38 298.74 458.73 C 302.86 455.72 308.30 455.65 313.03 457.08 C 313.40 434.87 316.38 412.72 321.89 391.19 C 319.31 390.60 316.64 390.04 314.44 388.50 C 306.62 383.47 305.51 371.27 311.55 364.46 C 316.33 358.80 325.06 357.98 331.22 361.84 C 337.94 343.64 346.82 326.28 357.24 309.94 C 350.29 308.99 344.19 303.19 343.83 296.02 C 342.95 287.92 349.83 280.09 357.97 279.90 C 364.10 279.41 369.81 283.25 372.55 288.59 C 386.13 270.96 402.27 255.43 419.79 241.77 C 429.55 234.82 439.16 227.49 449.96 222.20 C 431.07 225.36 412.49 230.52 394.81 237.90 M 360.96 368.09 C 342.97 412.74 338.40 462.62 347.51 509.86 C 354.49 545.82 369.14 580.41 390.96 609.90 C 418.35 609.86 445.75 609.89 473.14 609.89 C 472.91 487.77 473.12 365.65 473.04 243.53 C 422.09 269.48 381.78 314.95 360.96 368.09 M 503.01 247.29 C 502.99 264.29 503.01 281.28 503.00 298.28 C 508.52 297.52 514.53 299.35 517.91 303.97 C 522.67 309.85 521.85 319.24 516.15 324.22 C 512.67 327.57 507.66 328.52 503.00 328.00 C 502.99 341.01 503.02 354.03 502.98 367.05 C 507.61 365.01 513.19 364.70 517.62 367.41 C 524.94 371.36 527.44 381.77 522.70 388.60 C 518.68 395.13 509.70 397.12 502.98 393.76 C 503.01 411.77 503.02 429.78 502.98 447.79 C 508.99 442.87 518.58 443.21 523.79 449.14 C 529.67 455.17 528.84 466.02 522.10 471.07 C 516.66 475.58 508.42 475.15 502.98 470.87 C 503.01 489.51 503.01 508.15 502.98 526.79 C 508.99 521.87 518.60 522.21 523.81 528.15 C 529.68 534.20 528.83 545.06 522.06 550.10 C 516.62 554.58 508.41 554.14 502.98 549.87 C 502.96 569.87 503.12 589.88 502.89 609.89 C 534.46 609.83 566.04 609.98 597.61 609.81 C 621.55 574.29 636.13 532.54 639.37 489.82 C 642.89 449.60 636.26 408.59 620.70 371.36 C 598.23 317.62 556.15 271.75 503.01 247.29 M 272.70 639.81 C 267.21 651.83 267.83 666.22 274.00 677.85 C 277.39 684.72 282.28 691.41 289.50 694.55 C 294.60 697.29 296.37 703.18 297.22 708.52 C 315.66 790.65 334.15 872.76 352.63 954.89 C 444.71 954.87 536.79 954.90 628.87 954.87 C 648.09 872.62 667.21 790.35 686.43 708.10 C 687.51 703.84 690.58 700.48 693.96 697.84 C 701.65 691.67 706.97 682.79 709.15 673.21 C 711.76 661.90 709.42 649.57 703.23 639.81 C 599.15 639.88 495.07 639.80 390.98 639.85 C 383.32 640.45 375.67 639.60 368.00 639.84 C 336.23 639.82 304.47 639.87 272.70 639.81 Z" style=""></path><path fill="currentColor" opacity="1.00" d=" M 325.19 692.25 C 366.77 691.94 408.37 692.24 449.96 692.10 C 453.54 691.94 457.25 692.67 460.19 694.84 C 465.50 698.49 467.97 705.79 465.75 711.89 C 463.78 718.07 457.45 722.43 450.97 722.08 C 409.30 722.05 367.63 722.11 325.97 722.06 C 318.17 721.95 311.47 714.70 311.79 706.94 C 311.70 699.58 317.84 692.81 325.19 692.25 Z" style=""></path><path fill="currentColor" opacity="1.00" d=" M 484.33 694.54 C 489.40 692.89 494.83 693.90 500.06 693.63 C 505.58 693.32 511.13 696.27 513.85 701.11 C 517.28 706.84 516.19 714.80 511.32 719.38 C 508.11 722.61 503.45 723.90 498.99 723.62 C 493.21 723.32 486.82 724.68 481.67 721.33 C 475.49 717.67 472.86 709.28 475.78 702.73 C 477.36 698.97 480.52 695.96 484.33 694.54 Z" style=""></path></g></svg>