<svg xmlns="http://www.w3.org/2000/svg" viewBox="0 0 1000 1000" version="1.1" x="0px" y="0px" style="max-width:100%" height="100%"><g style="" fill="currentColor"><path fill="currentColor" opacity="1.00" d=" M 480.04 27.02 C 486.06 22.15 495.87 23.21 500.59 29.40 C 519.10 49.96 534.61 73.12 547.48 97.60 C 565.10 131.56 578.20 167.82 586.95 205.06 C 594.60 236.10 599.27 267.87 601.40 299.76 C 627.69 274.79 647.89 243.66 660.79 209.83 C 671.93 180.89 677.87 150.00 678.70 119.02 C 678.68 115.57 676.58 112.46 676.91 108.96 C 677.14 98.58 689.12 90.53 698.84 94.11 C 702.69 95.50 706.05 98.50 707.50 102.39 C 708.30 104.52 709.01 106.75 710.57 108.48 C 733.58 137.19 750.33 170.69 760.66 205.94 C 778.08 266.12 776.67 331.71 756.05 390.91 C 804.15 381.78 855.14 390.31 897.99 413.84 C 905.57 418.14 907.50 429.42 901.79 435.99 C 898.20 439.68 894.44 444.00 889.05 444.80 C 852.37 450.99 817.98 468.58 790.51 493.51 C 755.43 524.98 731.12 567.53 719.01 612.89 C 725.97 616.78 728.98 624.55 732.91 631.04 C 746.77 658.69 740.53 694.84 718.22 716.27 C 716.54 717.98 714.26 719.49 713.93 722.07 C 695.24 802.42 676.46 882.75 657.76 963.09 C 656.80 967.02 656.31 971.35 653.49 974.50 C 650.67 977.64 648.38 981.55 644.39 983.36 C 640.57 985.36 636.16 984.76 632.02 984.84 C 537.36 984.84 442.69 984.83 348.03 984.85 C 343.00 984.96 337.42 985.22 333.30 981.80 C 329.51 978.40 326.14 974.06 325.06 968.98 C 306.12 884.94 287.33 800.86 268.29 716.85 C 261.36 712.19 256.07 705.57 251.13 698.94 C 247.16 691.68 242.92 684.36 241.32 676.13 C 236.81 659.34 238.75 640.96 246.39 625.36 C 248.37 621.57 250.22 617.33 254.03 615.01 C 256.39 613.34 259.29 612.88 262.07 612.40 C 254.09 575.85 237.71 541.03 213.77 512.20 C 186.92 479.45 150.14 454.59 109.11 443.59 C 97.03 440.10 84.54 438.15 72.01 437.13 C 66.89 436.77 62.14 433.50 59.91 428.89 C 57.26 423.87 58.68 417.97 59.80 412.73 C 61.69 406.16 68.39 403.21 73.59 399.66 C 122.73 368.08 184.36 356.09 241.57 368.62 C 220.74 299.60 228.25 222.31 262.99 159.03 C 281.78 124.21 308.88 93.83 341.53 71.46 C 346.55 67.56 353.13 68.91 358.99 68.84 C 367.86 69.57 374.35 79.44 371.51 87.88 C 364.92 105.86 359.66 124.43 357.34 143.48 C 351.15 187.52 357.57 233.11 374.92 274.00 C 374.43 222.91 384.71 171.56 406.15 125.10 C 423.59 87.78 448.20 53.40 480.04 27.02 M 432.89 138.69 C 406.12 197.50 398.67 264.55 409.95 328.04 C 410.33 332.69 414.19 335.76 416.58 339.43 C 448.29 383.29 465.77 437.01 467.01 491.05 C 468.07 531.76 460.02 572.70 443.39 609.89 C 461.58 609.87 479.77 609.89 497.97 609.88 C 525.86 569.93 544.63 524.18 556.52 477.08 C 568.78 428.47 573.90 378.14 572.81 328.04 C 571.69 285.48 566.16 242.96 555.26 201.77 C 544.49 160.60 528.35 120.58 505.30 84.71 C 499.89 76.28 493.71 68.38 487.71 60.36 C 464.49 82.52 446.45 109.71 432.89 138.69 M 287.62 176.59 C 254.93 238.26 251.18 314.21 276.86 379.03 C 280.28 380.32 283.65 381.72 286.98 383.24 C 279.67 357.19 275.93 330.14 275.79 303.08 C 275.26 294.81 282.66 287.11 290.98 287.54 C 298.71 287.37 305.72 294.22 305.72 301.95 C 305.83 336.66 312.50 371.34 325.45 403.55 C 325.88 404.66 326.59 405.68 327.59 406.38 C 379.35 443.17 415.42 500.43 428.73 562.30 C 436.36 532.89 439.09 502.13 435.75 471.89 C 431.54 432.13 417.60 393.28 394.70 360.44 C 387.44 349.77 378.65 340.25 371.51 329.50 C 329.82 268.56 315.41 190.08 331.43 118.13 C 313.77 135.05 298.86 154.86 287.62 176.59 M 705.82 154.65 C 696.84 218.61 667.15 280.41 619.08 324.11 C 613.87 328.60 608.95 333.58 602.91 336.96 C 603.26 393.66 596.07 450.56 579.95 504.97 C 569.06 541.69 554.01 577.29 533.83 609.89 C 542.21 609.87 550.59 609.89 558.97 609.88 C 565.62 569.68 580.22 530.68 602.68 496.63 C 621.85 467.57 646.65 441.96 676.03 423.15 C 675.83 420.47 675.57 417.71 676.46 415.12 C 688.52 378.34 694.88 339.73 695.78 301.05 C 695.65 295.81 698.44 290.63 702.96 287.94 C 707.96 284.79 714.83 285.08 719.58 288.59 C 723.83 291.59 726.16 296.87 725.75 302.04 C 724.90 336.61 720.05 371.11 710.93 404.48 C 714.50 403.05 718.10 401.68 721.72 400.38 C 721.99 397.99 722.25 395.57 723.18 393.32 C 751.28 323.63 749.14 242.15 716.55 174.34 C 713.20 167.67 710.16 160.75 705.82 154.65 M 114.64 411.44 C 113.59 411.95 112.61 412.59 111.62 413.22 C 127.11 417.10 142.23 422.50 156.59 429.50 C 194.92 448.02 227.67 477.34 251.45 512.56 C 271.43 541.80 285.06 575.21 292.17 609.87 C 312.10 609.90 332.03 609.87 351.97 609.89 C 341.95 556.28 315.06 505.26 273.93 469.07 C 270.19 465.93 268.01 461.00 268.50 456.12 C 269.05 448.41 276.28 441.99 284.02 442.47 C 288.91 442.45 292.96 445.51 296.27 448.79 C 342.46 490.51 372.05 548.85 382.59 609.88 C 390.07 609.88 397.56 609.89 405.04 609.88 C 403.09 569.72 391.23 530.02 370.25 495.69 C 353.40 468.46 331.19 444.14 304.11 426.84 C 297.02 421.59 288.99 417.86 281.24 413.73 C 253.36 399.89 222.07 393.31 190.99 393.80 C 164.72 394.60 138.55 400.47 114.64 411.44 M 763.95 419.96 C 725.48 426.50 689.68 445.74 661.53 472.55 C 623.28 508.84 598.78 558.26 589.40 609.88 C 604.12 609.89 618.83 609.87 633.54 609.89 C 634.05 607.61 634.61 605.34 635.33 603.13 C 646.09 568.64 661.31 535.45 681.41 505.39 C 683.38 502.47 685.18 499.21 688.22 497.25 C 693.48 493.62 701.10 493.94 706.02 498.04 C 711.96 502.64 713.37 511.87 709.04 518.02 C 689.66 546.14 674.96 577.36 664.64 609.88 C 672.68 609.89 680.73 609.87 688.78 609.89 C 700.78 562.23 724.58 517.19 759.14 482.05 C 783.81 456.81 813.99 436.77 847.29 424.91 C 820.34 417.07 791.63 415.05 763.95 419.96 M 272.69 639.82 C 264.78 656.80 269.96 678.00 283.34 690.68 C 286.08 693.44 290.31 694.13 292.78 697.24 C 296.03 700.64 296.51 705.50 297.52 709.88 C 315.88 791.55 334.25 873.22 352.63 954.88 C 444.71 954.88 536.79 954.90 628.87 954.87 C 648.09 872.63 667.21 790.36 686.43 708.12 C 687.50 703.85 690.58 700.48 693.96 697.84 C 701.65 691.67 706.98 682.78 709.15 673.19 C 711.76 661.89 709.41 649.57 703.23 639.81 C 559.72 639.86 416.20 639.85 272.69 639.82 Z" style=""></path><path fill="currentColor" opacity="1.00" d=" M 499.37 147.64 C 505.79 145.53 513.46 148.39 516.73 154.33 C 518.87 158.26 520.67 162.35 522.57 166.40 C 524.18 170.11 526.35 173.86 526.00 178.06 C 525.81 185.11 519.98 191.42 512.99 192.22 C 506.64 193.17 500.00 189.48 497.41 183.61 C 495.01 178.10 492.33 172.71 489.86 167.23 C 486.63 159.52 491.39 149.92 499.37 147.64 Z" style=""></path><path fill="currentColor" opacity="1.00" d=" M 293.47 214.62 C 300.82 212.96 308.84 217.72 310.85 224.97 C 312.63 230.38 310.08 235.80 309.09 241.09 C 307.82 246.83 307.43 253.58 302.32 257.44 C 295.56 263.36 283.87 261.22 279.71 253.23 C 276.06 247.27 278.71 240.30 279.96 234.04 C 281.04 229.89 281.52 225.46 283.61 221.65 C 285.71 218.05 289.40 215.46 293.47 214.62 Z" style=""></path><path fill="currentColor" opacity="1.00" d=" M 529.24 233.29 C 537.27 230.32 546.95 235.69 548.63 244.09 C 569.62 337.02 559.99 437.35 518.30 523.33 C 515.44 530.64 506.48 534.79 499.13 531.81 C 491.23 529.13 486.98 519.21 490.65 511.68 C 529.85 431.56 539.00 337.88 519.49 251.11 C 517.51 243.78 522.02 235.56 529.24 233.29 Z" style=""></path><path fill="currentColor" opacity="1.00" d=" M 704.34 239.59 C 712.88 236.32 723.21 242.69 724.06 251.79 C 724.41 257.57 726.11 263.91 723.13 269.29 C 719.95 275.55 712.01 278.79 705.36 276.52 C 699.47 274.75 695.14 269.05 694.92 262.92 C 694.64 257.82 693.29 252.37 695.58 247.54 C 697.24 243.83 700.50 240.91 704.34 239.59 Z" style=""></path><path fill="currentColor" opacity="1.00" d=" M 229.42 410.57 C 233.31 409.25 237.66 409.73 241.29 411.61 C 246.41 414.12 251.49 416.76 256.39 419.71 C 262.17 423.06 264.98 430.55 262.93 436.90 C 261.10 443.22 254.71 447.82 248.12 447.48 C 243.14 447.49 239.18 444.16 234.95 442.03 C 230.00 439.19 223.71 437.54 220.99 432.02 C 216.39 424.24 220.76 413.15 229.42 410.57 Z" style=""></path><path fill="currentColor" opacity="1.00" d=" M 735.34 444.51 C 741.83 441.75 750.00 444.37 753.66 450.40 C 757.36 456.02 756.54 464.04 751.79 468.80 C 747.44 473.12 742.87 477.22 738.60 481.63 C 734.23 486.14 726.98 487.47 721.35 484.64 C 714.92 481.70 711.39 473.85 713.42 467.08 C 714.85 461.65 719.74 458.38 723.36 454.48 C 727.20 451.01 730.52 446.66 735.34 444.51 Z" style=""></path><path fill="currentColor" opacity="1.00" d=" M 325.18 692.25 C 367.12 691.95 409.08 692.22 451.02 692.12 C 457.74 691.77 464.27 696.52 465.97 703.03 C 468.03 709.65 464.61 717.34 458.44 720.42 C 454.65 722.55 450.16 722.04 446.00 722.09 C 406.00 722.05 366.00 722.11 326.01 722.06 C 318.23 721.97 311.51 714.76 311.79 707.02 C 311.66 699.63 317.81 692.82 325.18 692.25 Z" style=""></path><path fill="currentColor" opacity="1.00" d=" M 484.39 694.52 C 489.41 692.90 494.79 693.89 499.98 693.63 C 505.07 693.35 510.21 695.74 513.11 699.96 C 516.72 704.92 516.75 712.14 513.20 717.14 C 510.33 721.42 505.15 723.87 500.03 723.61 C 493.69 723.27 486.55 724.90 481.03 720.90 C 474.36 716.52 472.54 706.55 477.24 700.10 C 478.95 697.53 481.52 695.61 484.39 694.52 Z" style=""></path></g></svg>