<svg xmlns="http://www.w3.org/2000/svg" viewBox="0 0 1000 1000" version="1.1" x="0px" y="0px" style="max-width:100%" height="100%"><g style="" fill="currentColor"><path fill="currentColor" opacity="1.00" d=" M 463.28 12.35 C 468.26 4.72 480.32 3.83 486.39 10.62 C 489.84 13.82 490.20 18.64 491.20 22.94 C 493.03 19.56 493.70 15.41 496.85 12.87 C 502.82 7.03 513.54 7.76 518.65 14.37 C 522.59 18.92 522.57 25.40 521.13 30.94 C 525.00 33.17 529.13 34.91 532.99 37.17 C 547.68 46.82 560.10 60.10 568.16 75.77 C 572.47 83.82 575.22 92.61 577.46 101.44 C 579.42 109.14 578.91 117.16 579.36 125.03 C 579.68 135.97 576.60 146.65 572.92 156.84 C 571.13 161.60 569.74 166.58 566.92 170.87 C 558.63 185.02 547.40 197.68 533.40 206.37 C 519.86 215.49 503.93 220.73 487.72 222.28 C 487.71 243.74 487.72 265.20 487.71 286.65 C 493.89 286.56 500.20 283.48 506.26 285.90 C 512.95 288.34 517.11 295.94 515.56 302.90 C 514.52 308.18 510.42 312.75 505.23 314.23 C 499.52 315.76 493.59 316.23 487.72 316.71 C 487.71 339.60 487.72 362.49 487.72 385.38 C 494.35 385.07 500.96 384.49 507.57 383.84 C 505.79 378.39 503.53 372.88 503.61 367.05 C 503.91 359.21 511.22 352.62 519.04 353.00 C 525.38 353.15 531.44 357.73 532.95 363.96 C 533.99 368.59 535.51 373.09 537.19 377.52 C 553.07 372.95 568.01 365.42 581.81 356.38 C 577.98 349.30 575.07 341.74 572.97 333.98 C 568.09 313.58 570.79 291.43 580.98 273.04 C 587.50 260.51 597.25 249.75 609.04 241.99 C 628.52 228.62 653.62 223.99 676.66 229.02 C 676.54 222.19 681.11 215.52 687.85 213.83 C 694.56 211.90 702.29 215.37 705.24 221.72 C 706.98 224.93 706.78 228.68 706.64 232.21 C 712.32 228.82 720.07 229.49 724.82 234.18 C 728.69 237.68 730.03 243.15 729.31 248.20 C 738.30 245.23 748.67 252.39 748.73 261.91 C 749.72 269.31 744.99 276.62 737.90 278.89 C 744.18 291.57 745.32 305.98 745.03 319.92 C 745.08 327.97 742.47 335.69 740.25 343.33 C 734.47 357.08 726.08 369.99 714.63 379.69 C 701.21 390.93 684.32 397.66 667.02 399.85 C 652.92 400.73 638.35 399.52 625.28 393.80 C 616.38 390.67 608.54 385.26 601.25 379.39 C 592.63 385.31 583.60 390.62 574.21 395.23 C 578.39 398.24 582.73 401.04 586.80 404.22 C 593.11 409.45 593.52 419.96 587.75 425.74 C 582.90 431.06 574.14 431.96 568.32 427.74 C 563.15 423.97 557.19 420.88 553.71 415.30 C 550.50 412.73 547.21 410.20 544.93 406.70 C 526.48 412.89 506.99 414.39 487.68 415.46 C 487.75 461.30 487.72 507.14 487.70 552.98 C 496.91 551.40 506.18 554.20 515.46 553.54 C 515.40 550.32 515.13 547.11 514.74 543.92 C 514.08 535.13 515.73 526.39 517.66 517.86 C 519.10 511.36 525.30 506.24 532.01 506.35 C 538.59 506.03 544.90 510.76 546.65 517.07 C 548.24 522.22 546.10 527.43 545.28 532.51 C 544.43 538.18 544.07 544.03 545.36 549.67 C 572.04 544.37 596.93 531.14 617.02 512.89 C 615.50 495.93 618.46 478.40 626.70 463.40 C 620.24 461.29 615.31 454.96 615.81 448.02 C 616.09 440.25 623.19 433.49 631.01 433.85 C 636.90 434.11 643.05 434.17 648.49 436.74 C 655.35 431.51 663.20 427.86 670.74 423.74 C 686.22 417.19 703.63 415.59 720.14 418.51 C 726.54 419.67 732.48 422.40 738.69 424.26 C 742.67 425.46 746.37 427.60 749.25 430.64 C 751.04 426.61 753.96 422.85 758.23 421.29 C 764.99 418.44 773.51 421.49 776.91 428.00 C 779.09 431.68 779.06 436.15 778.06 440.19 C 782.23 439.66 786.72 440.13 790.16 442.78 C 798.01 448.22 798.48 460.77 791.93 467.42 C 799.88 467.77 806.80 474.95 806.30 483.00 C 806.26 490.94 799.12 497.52 791.30 497.62 C 790.02 503.10 791.60 508.68 790.71 514.18 C 788.93 522.27 787.76 530.61 784.06 538.13 C 780.33 546.79 774.82 554.56 769.07 561.96 C 759.14 570.64 748.65 579.17 736.34 584.24 C 731.75 586.09 726.89 587.10 722.13 588.42 C 712.30 591.08 702.06 589.37 692.06 589.35 C 687.90 589.37 684.00 587.91 680.11 586.69 C 665.94 583.29 653.20 575.27 642.66 565.37 C 636.01 559.33 631.06 551.77 626.70 543.99 C 616.45 552.02 605.32 558.91 593.65 564.69 C 597.98 567.77 603.30 570.35 605.28 575.66 C 608.36 582.70 604.89 591.60 597.96 594.83 C 592.85 597.44 586.49 596.56 582.00 593.12 C 575.32 588.33 567.83 583.69 563.91 576.20 C 557.53 578.55 550.71 579.02 544.13 580.56 C 534.22 582.68 524.03 582.73 513.97 583.56 C 505.19 583.44 496.37 582.94 487.69 581.62 C 487.75 591.04 487.70 600.46 487.71 609.88 C 559.78 609.87 631.84 609.90 703.91 609.87 C 708.33 610.00 712.55 611.55 716.90 612.23 C 723.45 614.06 726.86 620.48 730.02 625.95 C 747.49 653.93 741.96 693.46 718.27 716.21 C 716.59 717.93 714.31 719.45 713.94 722.03 C 695.25 802.38 676.47 882.71 657.77 963.05 C 656.81 967.00 656.30 971.34 653.49 974.51 C 650.69 977.65 648.37 981.52 644.42 983.35 C 640.59 985.35 636.17 984.76 632.03 984.85 C 535.35 984.81 438.67 984.87 342.00 984.82 C 333.69 984.79 327.66 977.22 325.31 969.95 C 306.23 885.59 287.43 801.17 268.28 716.83 C 261.36 712.18 256.04 705.57 251.14 698.93 C 247.14 691.68 242.92 684.35 241.32 676.12 C 236.62 658.61 238.92 639.37 247.41 623.37 C 249.62 618.51 253.48 613.83 259.06 613.01 C 263.52 612.51 267.35 609.49 271.96 609.88 C 333.90 609.89 395.83 609.88 457.77 609.88 C 457.76 586.93 457.76 563.98 457.77 541.02 C 448.42 542.07 439.01 541.58 429.68 540.55 C 421.65 551.22 411.66 560.61 399.71 566.72 C 394.50 569.24 387.87 568.21 383.59 564.36 C 377.88 559.57 376.87 550.38 381.27 544.40 C 384.69 539.87 390.34 537.96 394.57 534.33 C 356.94 523.71 323.08 500.63 299.08 469.81 C 294.00 477.02 287.93 483.53 281.00 488.99 C 274.06 494.11 266.80 499.08 258.46 501.62 C 246.78 505.37 234.47 508.47 222.10 507.32 C 192.88 506.19 164.86 488.87 150.57 463.40 C 147.02 458.01 145.00 451.85 143.26 445.70 C 138.77 430.96 138.09 414.95 142.07 400.03 C 137.65 398.58 133.52 395.73 131.69 391.31 C 128.52 384.53 131.42 375.71 138.02 372.18 C 141.77 369.89 146.34 370.04 150.54 370.54 C 147.24 364.70 148.24 356.79 153.22 352.21 C 158.01 347.47 166.08 346.66 171.67 350.47 C 166.97 342.87 170.66 331.83 179.11 328.81 C 187.23 325.34 196.87 330.61 199.27 338.88 C 210.82 335.65 222.90 333.38 234.92 334.83 C 250.71 336.04 265.73 342.37 278.70 351.25 C 294.02 362.86 305.93 379.28 310.87 397.97 C 314.64 410.57 314.86 423.99 312.86 436.92 C 318.13 444.89 323.37 452.93 329.87 459.99 C 337.43 468.06 345.60 475.58 354.56 482.08 C 354.80 477.04 354.80 471.96 353.86 466.99 C 352.50 461.06 355.15 454.51 360.30 451.26 C 366.34 447.10 375.25 448.42 379.89 454.07 C 382.86 457.32 383.52 461.85 384.05 466.05 C 385.38 476.72 384.56 487.58 382.17 498.04 C 390.85 501.79 399.80 504.93 408.99 507.16 C 419.42 510.04 430.30 510.45 441.02 511.45 C 446.60 512.04 452.19 511.25 457.77 510.89 C 457.76 499.00 457.76 487.10 457.77 475.21 C 450.43 473.01 444.38 468.04 438.49 463.35 C 434.59 460.43 431.71 455.94 431.76 450.95 C 431.41 443.45 437.57 436.44 445.03 435.76 C 449.78 435.07 454.37 437.20 457.82 440.33 C 457.69 417.85 457.80 395.38 457.76 372.90 C 451.49 373.16 445.25 372.54 439.01 372.07 C 438.68 378.31 434.52 383.26 431.20 388.23 C 427.10 393.26 423.14 399.73 416.10 400.66 C 407.37 402.38 398.46 394.83 398.70 385.95 C 398.43 377.36 406.78 372.62 410.18 365.55 C 390.43 359.04 372.53 347.35 357.98 332.54 C 339.13 341.73 317.02 343.41 296.79 338.25 C 289.04 336.43 281.93 332.72 275.05 328.84 C 269.75 325.69 264.38 322.49 260.02 318.08 C 252.22 310.28 245.13 301.54 240.57 291.42 C 235.00 280.88 233.49 268.79 232.50 257.07 C 231.65 248.62 233.26 240.23 235.47 232.11 C 230.65 231.35 225.90 228.87 223.51 224.46 C 219.48 217.84 221.76 208.38 228.38 204.35 C 232.59 201.46 237.99 201.61 242.77 202.74 C 239.84 196.70 241.23 188.87 246.47 184.56 C 250.94 180.60 257.62 180.00 262.97 182.45 C 260.51 173.81 266.90 164.06 275.96 163.43 C 282.83 162.26 289.80 165.99 292.84 172.22 C 304.93 169.05 317.59 167.00 330.08 168.72 C 337.90 169.24 345.19 172.25 352.62 174.45 C 357.86 176.07 361.79 180.17 366.87 182.16 C 371.16 183.85 374.13 187.48 377.68 190.25 C 386.22 197.27 392.53 206.53 397.98 216.04 C 402.06 223.46 403.29 231.95 405.78 239.95 C 407.44 244.82 406.11 250.01 407.07 254.99 C 408.20 261.21 404.77 266.91 404.64 273.03 C 404.64 277.91 402.39 282.31 400.75 286.79 C 396.66 297.20 390.38 306.67 382.73 314.80 C 402.67 333.72 430.28 344.07 457.75 342.86 C 457.78 302.21 457.76 261.57 457.76 220.92 C 447.22 218.57 436.71 215.34 427.54 209.51 C 418.30 203.69 408.82 197.70 401.77 189.21 C 389.30 175.12 380.27 157.64 377.59 138.91 C 374.70 124.76 375.76 110.02 379.39 96.11 C 382.32 83.93 388.70 72.92 395.43 62.48 C 405.03 50.27 416.74 39.44 430.84 32.63 C 429.32 27.93 429.31 22.50 432.26 18.33 C 436.48 11.54 446.43 9.50 452.99 14.05 C 456.45 16.08 458.19 19.81 459.81 23.29 C 461.13 19.69 460.65 15.45 463.28 12.35 M 468.49 51.84 C 459.48 53.45 450.33 55.55 442.45 60.42 C 433.83 64.68 426.98 71.61 420.75 78.78 C 417.89 82.41 415.78 86.56 413.59 90.61 C 407.92 100.71 405.88 112.49 405.89 123.96 C 406.39 130.94 407.67 137.88 409.57 144.61 C 413.55 155.54 419.87 165.71 428.41 173.65 C 434.61 178.60 441.21 183.13 448.30 186.72 C 470.46 196.33 497.69 194.58 517.75 180.78 C 527.86 174.40 535.87 165.00 541.61 154.58 C 544.02 149.44 545.65 143.96 547.39 138.57 C 550.12 130.28 549.17 121.44 548.95 112.88 C 546.45 93.83 535.79 76.00 520.15 64.83 C 516.11 62.04 511.67 59.93 507.38 57.58 C 501.17 54.14 494.10 52.80 487.15 51.82 C 480.98 50.78 474.65 50.81 468.49 51.84 M 313.58 198.78 C 305.55 199.37 297.78 201.85 290.83 205.86 C 282.81 210.19 276.67 217.18 271.24 224.34 C 266.51 231.73 263.87 240.33 262.47 248.95 C 261.94 257.21 263.35 265.53 265.43 273.50 C 270.20 285.81 278.81 297.14 290.71 303.26 C 310.18 315.29 337.10 313.46 354.98 299.25 C 366.07 290.85 374.44 277.98 375.54 263.91 C 376.49 258.34 376.96 252.65 376.15 247.03 C 374.79 239.22 373.07 231.18 368.18 224.72 C 361.56 213.53 350.20 206.23 338.40 201.46 C 330.56 198.28 321.91 197.53 313.58 198.78 M 650.53 257.62 C 632.71 259.66 616.07 270.77 607.69 286.67 C 600.04 300.10 598.38 316.86 603.53 331.45 C 606.95 342.36 614.18 351.85 623.35 358.60 C 635.28 368.00 651.14 371.54 666.08 369.73 C 678.34 367.57 690.41 362.32 699.07 353.18 C 704.04 348.14 707.62 341.97 710.87 335.74 C 716.13 324.46 715.88 311.57 713.62 299.57 C 711.65 292.54 708.50 285.78 704.03 279.98 C 698.37 271.91 689.98 266.28 681.36 261.78 C 671.65 257.88 660.95 255.98 650.53 257.62 M 215.45 365.77 C 193.98 369.32 175.90 386.98 170.99 408.07 C 167.80 419.51 169.81 431.63 173.66 442.64 C 183.02 465.45 208.49 480.33 232.97 477.15 C 239.72 475.99 246.47 474.44 252.76 471.68 C 261.38 467.09 269.12 460.62 274.55 452.45 C 279.19 446.23 281.14 438.57 283.22 431.23 C 286.75 412.94 280.22 393.12 266.63 380.39 C 259.93 373.30 250.71 369.46 241.65 366.36 C 233.13 364.05 224.06 363.71 215.45 365.77 M 695.52 447.72 C 690.84 448.44 686.18 449.66 681.95 451.83 C 674.49 455.69 666.39 459.25 661.17 466.14 C 644.90 483.33 641.84 511.48 654.21 531.70 C 659.94 542.36 669.76 550.34 680.62 555.39 C 689.59 559.13 699.44 559.88 709.07 559.95 C 713.57 560.04 717.87 558.51 722.17 557.39 C 728.69 555.66 734.16 551.52 739.49 547.57 C 742.44 545.17 745.72 543.06 748.09 540.03 C 753.02 533.36 757.68 526.13 759.32 517.86 C 761.99 505.50 761.37 491.99 755.51 480.60 C 753.23 474.13 748.57 468.96 744.39 463.66 C 741.50 460.00 737.07 458.23 733.28 455.73 C 722.22 448.54 708.56 445.55 695.52 447.72 M 272.76 639.77 C 267.16 651.77 267.85 666.21 274.00 677.85 C 277.32 684.49 281.96 691.09 288.92 694.24 C 292.63 696.11 295.24 699.79 296.16 703.81 C 314.96 787.51 333.80 871.20 352.63 954.89 C 444.71 954.87 536.79 954.90 628.87 954.87 C 647.51 875.08 666.08 795.27 684.70 715.47 C 685.74 711.43 686.12 707.07 688.50 703.52 C 690.15 700.91 692.60 698.99 694.93 697.02 C 707.02 686.73 712.94 669.43 709.01 653.96 C 707.72 649.08 706.44 643.73 702.96 639.96 C 670.64 639.67 638.29 639.92 605.95 639.84 C 494.89 639.80 383.82 639.92 272.76 639.77 Z" style=""></path><path fill="currentColor" opacity="1.00" d=" M 325.20 692.25 C 366.80 691.93 408.42 692.24 450.03 692.10 C 455.02 691.76 460.19 693.75 463.28 697.77 C 467.59 702.99 467.62 711.12 463.33 716.37 C 460.44 720.11 455.72 722.26 451.00 722.08 C 409.32 722.05 367.64 722.12 325.97 722.05 C 318.19 721.95 311.50 714.74 311.79 707.00 C 311.67 699.62 317.82 692.81 325.20 692.25 Z" style=""></path><path fill="currentColor" opacity="1.00" d=" M 484.40 694.51 C 489.44 692.92 494.83 693.88 500.04 693.63 C 505.81 693.29 511.58 696.54 514.18 701.72 C 517.34 707.62 515.88 715.52 510.78 719.87 C 507.62 722.79 503.22 723.86 499.01 723.62 C 493.19 723.33 486.76 724.68 481.59 721.27 C 475.01 717.34 472.59 708.04 476.43 701.40 C 478.13 698.22 481.04 695.77 484.40 694.51 Z" style=""></path></g></svg>