<svg xmlns="http://www.w3.org/2000/svg" xmlns:xlink="http://www.w3.org/1999/xlink" version="1.1" x="0px" y="0px" viewBox="0 0 100 100" style="enable-background:new 0 0 100 100;max-width:100%" xml:space="preserve" height="100%"><path d="M12.2,27.5l-1.1,0.1C11.2,27.8,13.6,38.7,23,45c12.7,8.5,20.2,6.7,20.3,6.7l4.8,3.5c-2.6,1.2-3.1,4.4-5.6,4.4  c-1.3,0-2-0.8-3-2.1c-1.2-1.6-2.4-2.8-4.6-2.8c-2.2,0-3.3,1.2-4.6,2.8c-1,1.3-1.7,2.1-3,2.1c-0.3,0-0.6,0-0.8-0.1  c-0.8-0.3-1.5,0.5-1.3,1.3L32.6,87c1.1,3.9,5.5,6.7,10.6,6.9c0.1,0,13.8,0,13.9,0c5.2,0,9.3-2.6,10.4-6.6c7.1-25.8,7.4-26.5,7.2-27  c-0.2-0.5-0.7-0.8-1.2-0.7c-0.2,0.1-0.4,0.1-0.7,0.1c-3,0-3.3-4.9-7.6-4.9c-4.3,0-4.6,4.9-7.6,4.9c-1.3,0-2-0.8-3-2.1  c-0.3-0.4-0.7-0.9-1.1-1.3c-0.4-0.4-0.9-0.8-1.4-1l5.1-3.5c6.8,0.7,13.6-2.1,18.8-5.6c6.5-4.3,11.2-11.5,12.5-16.2l0.3-1.1  c-0.4,0-7.8-2-19.1,5.4c7.2-11.3,4.4-22.7,4.4-22.8l-1.1,0.4c-7,2.5-13.4,11.2-15.9,18.1C58.7,21,55.6,12.1,51.2,7l-0.8-0.9  c-0.1,0.1-7.2,7.7-7.2,19.2c0,0.6,0,1.2,0.1,1.8c-2.6-6-8.8-13.2-15.1-15.5L27,11.3c0,0.7-3.5,10.3,5.5,23.6  C27.7,30.8,18.9,26.7,12.2,27.5z M39.3,46.3L16.6,29.6C25.5,31,34.1,36.9,39.3,46.3z M47.2,52.1l-4.5-3.3c-0.9-2.2-2.3-4.8-4.1-7.3  c1.4,1,2.8,1.8,4.3,2.4L47.2,52.1z M56.8,45.2l0.3-0.1c1.1-0.4,2.2-0.9,3.3-1.5c-1.4,2-2.4,4-3.1,5.7l-4.3,3L56.8,45.2z M24.1,43.3  c-5.2-3.5-8.5-8.8-10.1-13.1l26.8,19.6C36.4,49.7,29.8,47.1,24.1,43.3z M65.6,86.7c-0.9,3.2-4.4,5.2-8.8,5.1H43.2  c-4.2-0.1-7.8-2.4-8.7-5.4L29.3,68c1.9-1.5,2.5-3.9,4.7-3.9c3,0,3.3,4.9,7.6,4.9c4.3,0,4.5-4.9,7.6-4.9c3,0,3.3,4.9,7.6,4.9  c4.3,0,4.5-4.9,7.6-4.9c1.3,0,2,0.8,3,2.1c0.8,1,1.7,2.1,3.1,2.6L65.6,86.7z M57.6,61.6c4.3,0,4.5-4.9,7.6-4.9  c2.9,0,3.2,4.6,7.3,4.9L71,66.8c-2.1-0.8-2.8-4.7-6.6-4.7c-4.3,0-4.5,4.9-7.6,4.9c-3,0-3.3-4.9-7.6-4.9c-4.3,0-4.5,4.9-7.6,4.9  c-3,0-3.3-4.9-7.6-4.9c-3,0-4.1,2.4-5.4,3.8l-1.2-4.2c4.1-0.2,4.4-4.9,7.4-4.9c3.1,0,3.3,4.9,7.6,4.9c2.4,0,3.6-1.6,4.6-2.8  c0.9-1.2,1.6-2.1,3-2.1c0.8,0,1.4,0.3,2,0.9c0.3,0.3,0.6,0.7,1,1.1C54,60.1,55.3,61.6,57.6,61.6z M75,44.4c-5,3.3-10.6,5.3-15.1,5.4  L85.7,32C83.8,36.1,79.9,41.2,75,44.4z M84.1,30.6L60.6,47c2.1-3.7,5.7-8,10.1-11C75.2,33,80,31.1,84.1,30.6z M58.3,42.4l14.5-27.1  C73.5,27,66.8,38.1,58.3,42.4z M70.5,15.4L57.4,39.8C57.6,29.7,63.7,20,70.5,15.4z M55.6,43.2l-4.5,8.3l0-7.7l0.1-0.1  c1.6-1.9,3.3-4.7,4.6-8.2C55.3,38.4,55.3,41,55.6,43.2z M51.1,40.5l0-30.3C57.1,19.3,57.1,31.4,51.1,40.5z M49.1,11.3l0,28.3  C47,36,45.2,31,45.2,25.4C45.2,19.8,47,14.8,49.1,11.3z M49.1,43.1l0,8.3l-4.6-8.7c0.4-2,0.7-4.3,0.6-6.9  C46.2,38.8,47.7,41.3,49.1,43.1z M40.4,25.8c2.8,5,3,9.9,2.6,13.8L29.9,14.7C33.2,16.6,37.2,20.2,40.4,25.8z M28.4,16.2L41.4,41  C35.4,37.3,28.2,26.7,28.4,16.2z" style="" fill="rgb(13,60,0)"></path></svg>